<?xml version="1.0" encoding="utf-8"?>
<!-- Generator: Adobe Illustrator 19.2.0, SVG Export Plug-In . SVG Version: 6.00 Build 0)  -->
<svg version="1.1" id="Calque_1" xmlns="http://www.w3.org/2000/svg" xmlns:xlink="http://www.w3.org/1999/xlink" x="0px" y="0px"
	 viewBox="0 0 724.4 722.9" style="enable-background:new 0 0 724.4 722.9;" xml:space="preserve">
<style type="text/css">
	.st0{fill:#3D3D3D;}
	.st1{fill:#4F4F4F;}
	.st2{fill:none;stroke:#FFFFFF;stroke-width:3;stroke-miterlimit:10;}
	.st3{fill:#3F3F3F;}
	.st4{fill:#020202;}
	.st5{fill:none;stroke:#FFFFFF;stroke-miterlimit:10;}
	.st6{fill:none;stroke:#5B5B5B;stroke-miterlimit:10;}
</style>
<path class="st0" d="M696.7,304.5h-17.3l17.3,13.3l-25.7,8.5v10.5h-20v-11.2h-21c0,1.8-26.4-0.7-27.1,0c-0.7,0.7-2.9,3.9-3.9,3.9
	h-31c-2.5,0,0-13.2,0-13.2h-21v-13.5c0,0,0-32,0-33.5s12,0,12,0s0,14,0,14.8s7.3,0,7.3,0l4.8-4.8v-7.5l12.5-12.5l-11-19.6h-26.1
	l3.9-3.9h-13.8v4.5H496v-15.5h27.5l13-9.5v-9.5l-24.8-15V185h15.7l3.2,3.2h13v-15.7H528v-6.7h22.3v-12h-20.5l-2.8-2.8h-21v10.3h7.5
	v7c0,0-28.8,0.3-28.8,0s0-5.5,0-5.5h-30.3v4.5H437v-9.5c0,0,49.8,1.8,49.8,0s0-11.3,0-11.3h6.9v-9.7l-19.1-6.6h-21.8
	c0,0-3-10.2,0-10.2s9,0,9,0v-6.8l-8.8-0.5c1,0,7.5-7.5,7.5-7.5h17c0,0-0.8,5.4,0,6.2s6.8,0,6.8,0v7.7H511c0,0,7.5,7.5,8,8
	s20.7,0,20.7,0v5.7h10.6c0,0,12-9.2,13.1-10H581v3.7h-4l-1.3,8h-4.3l1.5,1.5h19.8v4.5H572v13.3h26v-9.7h2.7v11.7h18.7v5h-17.7v31.3
	h6.7v4.7h-5.7c0,0-2.3,12.7,0,12.7c2.3,0,35.3,0,35.3,0v3.7h-7.3v2.3h8.7v4.7h-43l20.7,9.6v3.7h7v11.3h7v6.7l12.7,5.3h17.7v5
	l-7.7,4.7v6.7l11.7,2v2.7l-4,4v5.7h4c0,0-1.2,6.2,0,7.3c1.2,1.2,6.7,5.7,6.7,5.7h24.7V304.5z"/>
<path class="st1" d="M722.5,329.8l-9.8-11h-16.1l-25.7,8.5v10.5h-20v-11.2h-21c0,1.8-26.4-0.7-27.1,0c-0.7,0.7-2.9,3.9-3.9,3.9h-31
	c-2.5,0,0-13.2,0-13.2h-21v-13.5c0,0,0-32,0-33.5s12,0,12,0s0,14,0,14.8s7.3,0,7.3,0l4.8-4.8v-7.5l12.5-12.5l-11-19.6h-26.1l3.9-3.9
	h-13.8v4.5H496v-15.5h27.5l13-9.5v-9.5l-24.8-15V186h15.7l3.2,3.2h13v-15.7H528v-6.7h22.3v-12h-20.5l-2.8-2.8h-21v10.3h7.5v7
	c0,0-28.8,0.3-28.8,0s0-5.5,0-5.5h-30.3v4.5H437v-9.5c0,0,49.8,1.8,49.8,0s0-11.3,0-11.3h6.9v-9.7l-19.1-6.6h-21.8
	c0,0-3-10.3,0-10.3s9,0,9,0v-6.8l-8.8-0.5c1,0,7.5-7.5,7.5-7.5h17c0,0-0.8,5.4,0,6.2s6.8,0,6.8,0v7.7H511c0,0,7.5,7.5,8,8
	s20.7,0,20.7,0v5.7h10.6c0,0,12-9.3,13.1-10v-16c0,0-5.5,0.2-6-0.3s0,7.7,0,7.7h-2.7l-6.3-5.3H515v-7l-6.3-5.3H502v-4h12.3l5.7-7.3
	V75.5h9.7v-3.7h-15v-4.3h-8.3v-5.3H494v-4.7h-10.3v-3.7l-13.3-12.7h-61.7v-4.3l-39-8H448l-41.3-11v4.3H388c0,0,0-9,0-13
	c88.6,7.7,130,42,130,42h4C473.7,13.5,388,6.5,388,6.5V0.9C379.4,0.3,370.7,0,362,0C162.1,0,0,162,0,362c0,0,100.9,16.4,361.9,16.4
	s328.9-7.3,362-16.4C723.9,351.1,723.4,340.4,722.5,329.8z M317.5,304.8c-49.8,37.4-115.9,33.6-147.6-8.7
	c-31.8-42.2-17.2-106.8,32.6-144.3s115.9-33.6,147.6,8.7C381.9,202.8,367.3,267.3,317.5,304.8z M417.5,75.8H435v-6h-25.5v-6
	c0,0-30.5,0-32.5,0s0-5.5,0-6.5s19.5,0,19.5,0v-6.2h-25v-4.3H465l8.3,9.8l4.3,4.3v5.5h-5v10H466c0,0,0,13,0,15s-6.5,0-6.5,0
	s0,3,0,5.5s-13.5,0-17.5,0s0-11.5,0-11.5s-22,0-24.5,0S417.5,75.8,417.5,75.8z"/>
<path class="st0" d="M477.5,59.9v5.5h-5v10H466c0,0,0,13,0,15s-6.5,0-6.5,0s0,3,0,5.5s-13.5,0-17.5,0s0-11.5,0-11.5s-22,0-24.5,0
	s0-9.5,0-9.5H435v-6h-25.5v-6c0,0-30.5,0-32.5,0s0-5.5,0-6.5s19.5,0,19.5,0v-6.2h-25v-4.3H465l8.3,9.8L477.5,59.9z"/>
<path class="st0" d="M639.3,498.9h12v3.7h-14l-8.7,5h-9.3l-8-3.3h-14.7v7.3h19.7l10.3,5.7v3l-9,2.3v-3.3h-30.3v3.3l13,3.7v3.7
	l-13,7.3h-29l12.7,9.3v4.3c0,0-23,7.7-23,8.7s0,5.7,0,5.7h4.7v4.3l-6.7,5.7l-26.7-6v6h6v10.7h-10.7v8h18v3.3H528v4.3h-5.7v4h6.3
	l20.3,9v6h-19l2.8,2.8h6.5v6.2H497v7.3l-9,4v4.7h6v12.7l-5.1,4.2L476,642.5v-7l-18.3-4.3v-7.3H436v-5.5l12.5-12.5v-16l-19-11h-35
	v-12.3H381v9.3h-19v-19h-5.5v14H352c0,0,0-30.5,0-32s-5.5,0-5.5,0s0,16.5,0,19s-23.5,0-23.5,0v9.5c0,0-22,0-24.5,0
	S283,551.9,283,551.9h-6v12.4h-18v10.8h-15.7v-12.3h-18.7v19.3h-6v-7h-21.3v-5.7h-12.7v-14h-29.3l-18,12.7v7h8v19.7h-22.7v-15.7H117
	l-4.3,4.3h-18v-16.7h-5.3v-11.3H76v6H60.6c-6.6-9.9-12.7-20.1-18.3-30.6H63v-18.6h6l7.2,7.2h7.3V531H105v13.9h16.5v-16.3H134v-16.3
	h50.5v-6.5H215v13h15.5v14l18,3.5c0,0,7,7.5,7.5,7.5s19,0,19,0v-8h45.5v-15.5H299c0,0-4.5-8,0-8s40.5,0,40.5,0v-14.5H301v-5.5h32.5
	v-14.5h33.4v33.5h5.1v-20.5h6v30.5h5.5v-36.5H397v-12.7h34v-5.3h-34.5v-9h-9v-13H444v17h7.5v18.5h17v17l3.8-3.8v-17.8H498v-15.5
	h39.5v-8h24.8v-12.2H554v-7.3h-29l6.7-6.7h72v-11.7H631l24.6,19.3l-5.3-1H635v11.7c0,0,1,8.7,2,8.7s4.3,0,4.3,0v3.7h-13l-15,13.7
	h-31.7v-5.7h-7.3l-13.7-5v27.7l-13,5.7h-3.3v5l2.8,2.8v3.2l39.2-13.7h4l2.3,6h27l6.7-6.3h8.7L639.3,498.9z"/>
<path class="st1" d="M723.4,381c-0.5,9.8-1.5,19.5-2.8,29.1v0l-8.3,17.4h-3v-13h-18.7v15l-17.3,7.7l-17.7-3.3L631,414.5h-27.3v11.7
	h-72l-6.7,6.7h29v7.3h8.3v12.2h-24.8v8H498v15.5h-25.8v17.8l-3.8,3.8v-17h-17v-18.5H444v-17h-56.5v13h9v9H431v5.3h-34v12.7h-13.5
	v36.5H378v-30.5h-6v20.5h-5.1v-33.5h-33.4v14.5H301v5.5h38.5v14.5c0,0-36,0-40.5,0s0,8,0,8h21.5v15.5H275v8c0,0-18.5,0-19,0
	s-7.5-7.5-7.5-7.5l-18-3.5v-14H215v-13h-30.5v6.5H134v16.3h-12.5v16.3H105V531H83.5v-11.4h-7.3l-7.2-7.2h-6V531H42.3
	c-12.6-23.7-22.7-49-29.8-75.4h24.8v5.3h8.6v11.3h16.8v-7.3h26.7v-11.3h-22v-6.7H50v-19.3H36v12h-5.3v-12.7c0,0-8.7,0-9.3,0
	c-0.7,0,0-23.4,0-23.4H2.5c-0.9-7.5-1.5-15-1.9-22.6c8.2,1.3,111.4,16.3,361.4,16.3C621.5,397.2,690.1,390,723.4,381z"/>
<path class="st1" d="M555.7,666.8c-56,35.6-122.5,56.2-193.7,56.2c-125.7,0-236.5-64.1-301.3-161.4H76v-6h13.3v11.3h5.3v16.7h18
	l4.3-4.3h5.7v15.7h22.7v-19.7h-8v-7l18-12.7h29.3v14h12.7v5.7h21.3v7h6v-19.3h18.7v12.3H259v-10.8h18v-12.4h6c0,0,13,15.4,15.5,15.4
	s24.5,0,24.5,0v-9.5c0,0,23.5,2.5,23.5,0s0-19,0-19s5.5-1.5,5.5,0s0,32,0,32h4.5v-14h5.5v19h19v-9.3h13.5v12.3h35l19,11v16
	L436,618.4v5.5h21.7v7.3l18.3,4.3v7l12.9,19.9l-27.2,22.4h39.7L555.7,666.8z"/>
<line class="st2" x1="555.7" y1="666.8" x2="555.7" y2="666.8"/>
<path class="st3" d="M724.4,361v19.8c-0.2,0.1-0.4,0.1-0.5,0.2c-33.3,9-101.8,16.2-361.4,16.2c-250,0-353.2-15-361.4-16.3
	c-0.4,0-0.5-0.1-0.5-0.1V361c0,0,100.9,16.4,362,16.4S691.3,370.2,724.4,361z"/>
<path class="st4" d="M723.9,370.1c-14.8,7.5-91.2,19-362,19S0,372.2,0,372.2l0-4.4c0,0,91.2,16.8,362,16.8s347.2-11.5,362-19V370.1z
	"/>
<line class="st5" x1="340.4" y1="98.6" x2="340.4" y2="98.6"/>
<path class="st5" d="M-559.8,338.9"/>
<line class="st5" x1="555.7" y1="666.8" x2="555.7" y2="666.8"/>
<line class="st5" x1="-559.8" y1="345.2" x2="-560.8" y2="347.5"/>
<path class="st2" d="M525.7,172.5"/>
<path class="st0" d="M89.3,453.5v11.3H62.7v7.3H45.9v-11.3h-8.6v-5.3H12.5c-4.6-16.9-7.9-34.3-10-52.1h18.9c0,0-0.7,23.4,0,23.4
	c0.7,0,9.3,0,9.3,0v12.7H36v-12h14v19.3h17.3v6.7H89.3z"/>
<g id="XMLID_1_">
	<g>
		<path class="st0" d="M360.9,179.8c9.7,24.4,7.5,52.9-5,78.8l-19.9-5.8c9.3-20.4,10.6-42.7,2.5-61.7L360.9,179.8z"/>
		<path class="st1" d="M360.9,179.8l-22.4,11.3c-2-4.7-4.6-9.3-7.8-13.5c-7.4-9.8-17.2-17-28.3-21.5l12.8-22.5
			c13.7,5.7,25.8,14.7,34.9,26.9C354.6,166.5,358.2,173,360.9,179.8z"/>
		<path class="st1" d="M336,252.8l19.9,5.8c-6.6,13.7-16.2,26.7-28.4,37.9l0,0L314,283.3C323.6,274.3,331,263.8,336,252.8z"/>
		<path class="st0" d="M338.5,191.1c8.1,19,6.9,41.3-2.5,61.7l-37.5-10.8c4.7-10.3,5.3-21.7,1.2-31.3L338.5,191.1z"/>
		<path class="st1" d="M338.5,191.1l-38.7,19.5c-1-2.4-2.3-4.7-4-6.8c-3.8-5-8.7-8.6-14.4-10.9l20.9-36.8
			c11.1,4.5,20.9,11.7,28.3,21.5C333.9,181.8,336.5,186.4,338.5,191.1z"/>
		<path class="st1" d="M298.6,241.9l37.5,10.8c-5,11-12.5,21.5-22.1,30.5l-26.6-25.9C292.2,252.8,296,247.5,298.6,241.9z"/>
		<path class="st0" d="M327.5,296.5L327.5,296.5c-3.1,2.9-6.5,5.7-10,8.3c-11,8.2-22.7,14.5-34.7,18.7l-4.5-18.2
			c9.3-3.3,18.3-8.2,26.8-14.5c3.1-2.4,6.1-4.8,8.8-7.5L327.5,296.5z"/>
		<path class="st0" d="M315.2,133.6l-12.8,22.5c-16.7-6.7-36.4-7.3-55.6-1.6l-4-23.3C267.8,123.7,293.5,124.6,315.2,133.6z"/>
		<path class="st0" d="M287.4,257.4l26.6,25.9c-2.8,2.6-5.7,5.1-8.8,7.5c-8.5,6.4-17.5,11.2-26.8,14.5l-9-36.7
			c4.7-1.7,9.3-4.2,13.6-7.4C284.5,260,286,258.7,287.4,257.4z"/>
		<path class="st0" d="M302.4,156.1l-20.9,36.8c-8.5-3.4-18.5-3.7-28.2-0.8l-6.5-37.6C266,148.8,285.7,149.4,302.4,156.1z"/>
		<path class="st0" d="M299.8,210.7c4.1,9.6,3.5,21-1.2,31.3l-17.9-5.2c2.5-5.5,2.9-11.6,0.7-16.8L299.8,210.7z"/>
		<path class="st1" d="M299.8,210.7l-18.4,9.3c-0.5-1.3-1.3-2.5-2.1-3.7c-2-2.7-4.7-4.6-7.7-5.8l10-17.5c5.6,2.3,10.6,5.9,14.4,10.9
			C297.5,206,298.8,208.3,299.8,210.7z"/>
		<path class="st1" d="M280.7,236.8l17.9,5.2c-2.6,5.6-6.3,10.9-11.2,15.5l-12.7-12.4C277.3,242.6,279.3,239.8,280.7,236.8z"/>
		<path class="st0" d="M274.7,245.1l12.7,12.4c-1.4,1.3-2.9,2.6-4.5,3.8c-4.3,3.2-8.9,5.7-13.6,7.4l-4.3-17.5c2.5-0.9,5-2.2,7.3-4
			C273.1,246.5,273.9,245.8,274.7,245.1z"/>
		<path class="st1" d="M278.3,305.3l4.5,18.2c-18.2,6.5-37.1,8.4-54.6,5.9l6.3-19.4C248.5,312.1,263.7,310.6,278.3,305.3z"/>
		<path class="st0" d="M281.5,192.9l-10,17.5c-4.5-1.8-9.9-2-15.1-0.4l-3.1-17.9C263,189.2,273,189.5,281.5,192.9z"/>
		<path class="st0" d="M281.4,220c2.2,5.2,1.9,11.3-0.7,16.8l-14.1-4.1c1.1-1.9,1.4-4,0.9-5.7L281.4,220z"/>
		<path class="st1" d="M281.4,220l-13.9,7c-0.2-0.8-0.6-1.5-1.1-2.1c-0.6-0.7-1.4-1.1-2.2-1.4l7.4-13.1c3,1.2,5.7,3.2,7.7,5.8
			C280.1,217.4,280.8,218.7,281.4,220z"/>
		<path class="st1" d="M266.5,232.7l14.1,4.1c-1.4,3-3.4,5.8-6,8.3l-10.1-9.8C265.4,234.5,266,233.6,266.5,232.7z"/>
		<path class="st1" d="M269.3,268.6l9,36.7c-14.6,5.3-29.8,6.8-43.8,4.7l12.6-39.1C254.2,272,261.9,271.3,269.3,268.6z"/>
		<path class="st0" d="M264.6,235.2l10.1,9.8c-0.8,0.7-1.6,1.4-2.4,2c-2.3,1.7-4.8,3-7.3,4l-3.4-13.7c1-0.5,1.9-1.1,2.7-1.9
			C264.4,235.4,264.5,235.3,264.6,235.2z"/>
		<path class="st0" d="M271.5,210.5l-7.4,13.1c-1.6-0.5-3.5-0.3-5.3,0.5l-2.4-14C261.6,208.5,267,208.6,271.5,210.5z"/>
		<path class="st1" d="M265,251.1l4.3,17.5c-7.4,2.7-15.1,3.5-22.2,2.4l6-18.6C256.9,252.9,261,252.5,265,251.1z"/>
		<path class="st0" d="M267.5,227c0.5,1.7,0.1,3.8-0.9,5.7l-6.6-1.9L267.5,227z"/>
		<path class="st1" d="M267.5,227l-7.5,3.8l4.1-7.3c0.9,0.3,1.6,0.7,2.2,1.4C266.9,225.5,267.3,226.2,267.5,227z"/>
		<path class="st1" d="M260,230.8l6.6,1.9c-0.5,0.9-1.2,1.8-2,2.6L260,230.8z"/>
		<path class="st1" d="M261.6,237.3l3.4,13.7c-4,1.4-8.1,1.9-11.9,1.3l4.5-14.1C258.9,238.3,260.3,238,261.6,237.3z"/>
		<path class="st0" d="M264.6,235.2c-0.1,0.1-0.2,0.2-0.2,0.2c-0.9,0.8-1.8,1.4-2.7,1.9l-1.6-6.6L264.6,235.2z"/>
		<path class="st0" d="M264.1,223.5l-4.1,7.3l-1.2-6.8C260.7,223.2,262.5,223,264.1,223.5z"/>
		<path class="st1" d="M260,230.8l1.6,6.6c-1.3,0.7-2.8,1-4,0.9L260,230.8z"/>
		<path class="st1" d="M258.8,224l1.2,6.8l-4.7-4.4c0.1-0.1,0.2-0.2,0.3-0.3C256.6,225.2,257.7,224.5,258.8,224z"/>
		<path class="st0" d="M260,230.8l-2.4,7.5c-1.6,0-3-0.6-3.9-1.6c-0.2-0.2-0.3-0.4-0.5-0.6L260,230.8z"/>
		<path class="st1" d="M260,230.8l-6.8,5.3c-1.1-1.6-1.2-3.9-0.3-6L260,230.8z"/>
		<path class="st0" d="M260,230.8l-7.1-0.8c0.5-1.3,1.3-2.5,2.4-3.6L260,230.8z"/>
		<path class="st1" d="M256.4,210l2.4,14c-1.1,0.5-2.2,1.2-3.2,2.1c-0.1,0.1-0.2,0.2-0.3,0.3l-10.3-9.6c0.8-0.8,1.8-1.6,2.7-2.3
			C250.4,212.4,253.4,210.9,256.4,210z"/>
		<path class="st0" d="M257.6,238.3l-4.5,14.1c-4.8-0.7-9.1-3-12.1-6.8l12.2-9.5c0.1,0.2,0.3,0.4,0.5,0.6
			C254.6,237.7,256,238.3,257.6,238.3z"/>
		<path class="st1" d="M253.3,192.1l3.1,17.9c-3,0.9-6,2.4-8.7,4.4c-1,0.7-1.9,1.5-2.7,2.3l-13-12.1c1.6-1.6,3.3-3,5.1-4.4
			C242.2,196.5,247.7,193.8,253.3,192.1z"/>
		<path class="st0" d="M245,216.8l10.3,9.6c-1.1,1.1-1.9,2.3-2.4,3.6l-14.9-1.6C239.1,224.2,241.5,220.2,245,216.8z"/>
		<path class="st1" d="M246.8,154.5l6.5,37.6c-5.6,1.7-11.1,4.4-16.2,8.2c-1.8,1.4-3.5,2.8-5.1,4.4l-27.2-25.3
			c3.1-3,6.5-5.9,10.1-8.6C224.9,163.3,235.8,157.8,246.8,154.5z"/>
		<path class="st1" d="M253.2,236.1l-12.2,9.5c-0.1-0.1-0.2-0.2-0.2-0.3c-3.6-4.8-4.4-10.9-2.8-16.8l14.9,1.6
			C252,232.2,252.1,234.4,253.2,236.1z"/>
		<path class="st0" d="M253.1,252.4l-6,18.6c-8.9-1.3-16.9-5.6-22.5-12.7l16.4-12.7C244,249.3,248.3,251.6,253.1,252.4z"/>
		<path class="st0" d="M247.1,271L234.5,310c-17.6-2.6-33.4-11-44.4-25l34.4-26.8C230.1,265.4,238.2,269.6,247.1,271z"/>
		<path class="st1" d="M242.8,131.3l4,23.3c-11,3.3-21.9,8.7-31.9,16.3c-3.6,2.7-6.9,5.6-10.1,8.6l-16.4-15.3
			c4.3-4.3,9-8.4,14.1-12.2C215.1,142.4,228.8,135.5,242.8,131.3z"/>
		<path class="st0" d="M232,204.7l13,12.1c-3.5,3.4-5.9,7.5-7,11.6l-19-2C221.1,218.6,225.5,211,232,204.7z"/>
		<path class="st1" d="M240.7,245.3c0.1,0.1,0.2,0.2,0.2,0.3l-16.4,12.7c-0.1-0.2-0.3-0.4-0.4-0.5c-6.7-8.9-8.2-20.3-5.2-31.3l19,2
			C236.3,234.3,237.1,240.5,240.7,245.3z"/>
		<path class="st0" d="M234.5,310l-6.3,19.4c-22.1-3.2-42-13.4-56.1-30.4l18-14C201.1,299,216.9,307.4,234.5,310z"/>
		<path class="st0" d="M204.8,179.4l27.2,25.3c-6.5,6.3-10.9,13.9-13.1,21.7l-39.9-4.2C183.3,206.8,192,191.8,204.8,179.4z"/>
		<path class="st1" d="M224.6,258.3l-34.4,26.8c-0.3-0.4-0.6-0.7-0.9-1.1c-13.2-17.6-16.2-40.1-10.3-61.8l39.9,4.2
			c-3,11-1.5,22.4,5.2,31.3C224.3,257.9,224.4,258.1,224.6,258.3z"/>
		<path class="st0" d="M188.4,164.1l16.4,15.3c-12.8,12.4-21.5,27.4-25.8,42.8l-22.8-2.4C161.2,199.8,172.1,180.4,188.4,164.1z"/>
		<path class="st1" d="M189.3,284c0.3,0.4,0.6,0.7,0.9,1.1l-18,14c-0.8-1-1.6-1.9-2.3-2.9c-16.4-21.8-20.4-49.5-13.7-76.4l22.8,2.4
			C173.1,243.8,176.1,266.4,189.3,284z"/>
	</g>
	<g>
		<path class="st6" d="M360.9,179.8c-2.7-6.8-6.3-13.2-10.8-19.3c-9.2-12.2-21.2-21.2-34.9-26.9c-21.6-9.1-47.4-9.9-72.4-2.3
			c-13.9,4.2-27.6,11.1-40.3,20.6c-5.1,3.8-9.8,7.9-14.1,12.2c-16.3,16.2-27.2,35.7-32.2,55.6c-6.8,26.9-2.7,54.6,13.7,76.4
			c0.7,1,1.5,1.9,2.3,2.9c14.1,17.1,34,27.3,56.1,30.4c17.5,2.5,36.3,0.6,54.6-5.9c12-4.3,23.7-10.5,34.7-18.7
			c3.5-2.6,6.8-5.4,10-8.3c12.2-11.2,21.8-24.2,28.4-37.9C368.4,232.7,370.5,204.2,360.9,179.8z"/>
		<path class="st6" d="M338.5,191.1c-2-4.7-4.6-9.3-7.8-13.5c-7.4-9.8-17.2-17-28.3-21.5c-16.7-6.7-36.4-7.3-55.6-1.6
			c-11,3.3-21.9,8.7-31.9,16.3c-3.6,2.7-6.9,5.6-10.1,8.6c-12.8,12.4-21.5,27.4-25.8,42.8c-6,21.7-3,44.2,10.3,61.8
			c0.3,0.4,0.6,0.7,0.9,1.1c10.9,13.9,26.8,22.3,44.4,25c14,2.1,29.2,0.6,43.8-4.7c9.3-3.3,18.3-8.2,26.8-14.5
			c3.1-2.4,6.1-4.8,8.8-7.5c9.6-9,17-19.5,22.1-30.5C345.4,232.4,346.6,210.1,338.5,191.1z"/>
		<path class="st6" d="M299.8,210.7c-1-2.4-2.3-4.7-4-6.8c-3.8-5-8.7-8.6-14.4-10.9c-8.5-3.4-18.5-3.7-28.2-0.8
			c-5.6,1.7-11.1,4.4-16.2,8.2c-1.8,1.4-3.5,2.8-5.1,4.4c-6.5,6.3-10.9,13.9-13.1,21.7c-3,11-1.5,22.4,5.2,31.3
			c0.1,0.2,0.3,0.4,0.4,0.5c5.6,7.1,13.6,11.3,22.5,12.7c7.1,1.1,14.8,0.3,22.2-2.4c4.7-1.7,9.3-4.2,13.6-7.4
			c1.6-1.2,3.1-2.5,4.5-3.8c4.9-4.6,8.6-9.9,11.2-15.5C303.3,231.6,303.9,220.3,299.8,210.7z"/>
		<path class="st6" d="M281.4,220c-0.5-1.3-1.3-2.5-2.1-3.7c-2-2.7-4.7-4.6-7.7-5.8c-4.5-1.8-9.9-2-15.1-0.4c-3,0.9-6,2.4-8.7,4.4
			c-1,0.7-1.9,1.5-2.7,2.3c-3.5,3.4-5.9,7.5-7,11.6c-1.6,5.9-0.8,12,2.8,16.8c0.1,0.1,0.2,0.2,0.2,0.3c3,3.8,7.3,6.1,12.1,6.8
			c3.8,0.6,8,0.1,11.9-1.3c2.5-0.9,5-2.2,7.3-4c0.9-0.6,1.7-1.3,2.4-2c2.6-2.5,4.6-5.3,6-8.3C283.2,231.2,283.6,225.1,281.4,220z"/>
	</g>
</g>
</svg>
