<?xml version="1.0" encoding="utf-8"?>
<!-- Generator: Adobe Illustrator 19.1.0, SVG Export Plug-In . SVG Version: 6.00 Build 0)  -->
<svg version="1.1" id="Calque_1" xmlns="http://www.w3.org/2000/svg" xmlns:xlink="http://www.w3.org/1999/xlink" x="0px" y="0px"
	 viewBox="0 0 126.2 407.3" style="enable-background:new 0 0 126.2 407.3;" xml:space="preserve">
<style type="text/css">
	.st0{fill:#768EDD;}
	.st1{fill:#EFEFEF;}
	.st2{fill:#565656;}
	.st3{fill:#2D2D2D;}
	.st4{fill:#B5B5B5;}
	.st5{font-family:'MyriadPro-Regular';}
	.st6{font-size:4.7069px;}
</style>
<g id="XMLID_1_">
	<g>
		<path class="st0" d="M41.3,52.2c0,0-2.5-27.7,21.8-51.9c24.2,24.2,21.8,51.9,21.8,51.9H41.3z"/>
		<polygon class="st1" points="41.3,52.2 84.9,52.2 88.1,52.2 88.1,57.3 84.5,57.3 41.7,57.3 38,57.3 38,52.2 		"/>
		<polygon class="st2" points="41.7,57.3 84.5,57.3 84.5,57.6 84.5,63.1 80.9,63.1 45.3,63.1 41.7,63.1 41.7,57.6 		"/>
		<rect x="45.3" y="63.1" class="st3" width="35.6" height="8"/>
		<polygon class="st2" points="45.3,71.1 80.9,71.1 82.3,71.1 82.3,76.9 80.9,76.9 64.2,76.9 45.3,76.9 43.8,76.9 43.8,71.1 		"/>
		<polygon class="st1" points="80.9,269.1 80.9,294.8 64.2,294.8 64.2,76.9 80.9,76.9 		"/>
		<polygon class="st1" points="45.3,269.1 45.3,76.9 64.2,76.9 64.2,294.8 45.6,294.8 45.3,294.8 		"/>
		<polygon class="st4" points="80.9,294.8 80.9,269.1 89.4,294.7 89.6,294.7 89.6,294.8 89.6,295.2 89.6,302.8 84.5,302.8 
			82.3,302.8 81.2,302.8 45.6,302.8 43.8,302.8 41.7,302.8 36.6,302.8 36.6,295.2 36.6,294.8 36.5,294.7 36.7,294.7 45.3,269.1 
			45.3,294.8 45.6,294.8 64.2,294.8 		"/>
		<polygon class="st0" points="17.4,300.3 36.5,294.7 36.6,294.8 36.6,295.2 36.6,302.8 41.7,302.8 41.7,332.6 35.1,332.6 
			35.1,332.2 		"/>
		<polygon class="st0" points="89.6,294.7 108.7,300.3 91,332.2 91,332.6 84.5,332.6 84.5,302.8 89.6,302.8 89.6,295.2 89.6,294.8 
					"/>
		<polygon class="st2" points="0.2,305.3 17.4,300.3 35.1,332.2 35.1,332.6 26.4,332.6 26.4,342.7 35.1,342.7 35.1,343.1 
			35.1,399.6 12.6,374 		"/>
		<polygon class="st2" points="108.7,300.3 125.9,305.3 113.6,374 91,399.6 91,343.1 91,342.7 99.8,342.7 99.8,332.6 91,332.6 
			91,332.2 		"/>
		<polygon class="st2" points="81.2,302.8 82.3,302.8 82.3,303.1 82.3,332.2 82.3,332.6 66.3,332.6 66.3,308.6 59.8,308.6 
			59.8,332.6 43.8,332.6 43.8,332.2 43.8,303.1 43.8,302.8 45.6,302.8 		"/>
		<rect x="59.8" y="308.6" class="st4" width="6.5" height="24"/>
		<polygon class="st1" points="41.7,342.7 35.1,342.7 26.4,342.7 26.4,332.6 35.1,332.6 41.7,332.6 43.8,332.6 59.8,332.6 
			66.3,332.6 82.3,332.6 84.5,332.6 91,332.6 99.8,332.6 99.8,342.7 91,342.7 84.5,342.7 82.3,342.7 66.3,342.7 59.8,342.7 
			43.8,342.7 		"/>
		<polygon class="st0" points="84.5,342.7 91,342.7 91,343.1 91,399.6 84.5,407 84.5,343.1 		"/>
		<polygon class="st2" points="66.3,342.7 82.3,342.7 82.3,372.5 79.4,372.5 46.7,372.5 43.8,372.5 43.8,342.7 59.8,342.7 
			59.8,368.9 66.3,368.9 		"/>
		<rect x="59.8" y="342.7" class="st4" width="6.5" height="26.1"/>
		<polygon class="st0" points="35.1,342.7 41.7,342.7 41.7,343.1 41.7,407 35.1,399.6 35.1,343.1 		"/>
		<rect x="46.7" y="372.5" class="st3" width="32.7" height="4.4"/>
	</g>
	<g>
	</g>
</g>
<text transform="matrix(4.489659e-11 -1 1 4.489659e-11 58.6346 278.9964)" class="st5 st6">404 BB8</text>
</svg>
