<?xml version="1.0" encoding="utf-8"?>
<!-- Generator: Adobe Illustrator 19.1.0, SVG Export Plug-In . SVG Version: 6.00 Build 0)  -->
<svg version="1.1" id="Calque_1" xmlns="http://www.w3.org/2000/svg" xmlns:xlink="http://www.w3.org/1999/xlink" x="0px" y="0px"
	 viewBox="-218 174.9 363 606.1" style="enable-background:new -218 174.9 363 606.1;" xml:space="preserve">
<style type="text/css">
	.st0{fill:#494949;}
	.st1{fill:#D3D3D3;}
	.st2{fill:#020202;}
	.st3{fill:#3771C4;}
	.st4{fill:#919191;}
	.st5{fill:none;stroke:#000000;stroke-miterlimit:10;}
</style>
<g id="XMLID_1_">
	<g>
		<path class="st0" d="M144,455.7v45.6l-27,11.5v-69.2l26.9,11.4C143.9,455.2,144,455.5,144,455.7z"/>
		<path class="st1" d="M40,512.3c-2.8,10.9-11,17.4-11,17.4v0.1l0,0l29.7,23.9l0,0c0,0,11.2-8.8,16.9-24.8H75v-0.7L40,512.3z
			 M141.6,517.7L141.6,517.7c-9.1,41.9-32.5,78.4-64.9,104l0,0l-1-1.5l-2.9-21.5l-78-78c9.5-7.1,16.6-17.3,19.6-29.2l103.1,21.2
			L141.6,517.7L141.6,517.7z"/>
		<path class="st1" d="M124.3,392.6L124.3,392.6c7.6,14.2,13.5,29.6,17.1,45.6l0,0l-24,5.1L14,464.6c-2.5-8.8-7.1-16.7-13.4-23
			c0,0,0-0.1-0.1-0.1l10.4-12.1l0,0l19,23.8l0,0l94.1-61l0,0l-0.1,0.1c0,0,0,0,0,0.1L124.3,392.6
			C124.3,392.5,124.3,392.5,124.3,392.6L124.3,392.6z"/>
		<path class="st1" d="M11,429.2L11,429.2l1.7-2L93,351.7v-0.5v-0.5v-0.1c0,0.1,0.3,0.3,0.4,0.4l-0.4-0.9v-0.5v-6v-0.7h48v0.7v38
			l-17,10.9l0,0v-0.1c0,0,0,0,0-0.1v-0.1v-0.1l0.1-0.1l0,0l-94.2,61l0,0l-4.3-5.4l0,0l-2.8-3.5L11,429.2L11,429.2l-0.1-0.1L11,429.2
			L11,429.2z"/>
		<polygon class="st0" points="141,334.9 141,342.9 93,342.9 93,334.9 		"/>
		<polygon class="st1" points="141,335 141,334.9 141,334.9 93.5,334.9 95.2,329.9 139.9,329.9 		"/>
		<path class="st1" d="M131.5,302.9l8.5,27H95.3l9.3-27h13.5H131.5L131.5,302.9z M137.1,327.9l-2.1-5h-3l1,5H137.1z M134,319.9
			l-5-13h-2l3.8,13H134z M130.9,327.9l-1.9-5h-3l2,5H130.9z M128.6,319.9l-3.6-13h-2l2,13H128.6z M123.2,324.9l-2.5-18h-5.5l-2.2,18
			H123.2z M111,319.9l2-13h-2l-3.6,13H111z M108,327.9l2-5h-3l-1.9,5H108z M105.2,319.9l3.8-13h-2l-5,13H105.2z M103,327.9l1-5h-3
			l-2.1,5H103z"/>
		<polygon class="st2" points="135,322.9 137.1,327.9 133,327.9 132,322.9 		"/>
		<polygon class="st2" points="129,306.9 134,319.9 130.8,319.9 127,306.9 		"/>
		<polygon class="st2" points="129,322.9 130.9,327.9 128,327.9 126,322.9 		"/>
		<polygon class="st2" points="125,306.9 128.6,319.9 125,319.9 123,306.9 		"/>
		<polygon class="st2" points="120.7,306.9 123.2,324.9 113,324.9 115.2,306.9 		"/>
		<path class="st1" d="M117,443.6v69.2v0.1L14.1,491.7c1.1-4.2,1.9-8.5,1.9-13c0-0.2,0-0.3,0-0.5c0-4.7-1-9.2-2.2-13.5L117,443.6
			L117,443.6z"/>
		<polygon class="st2" points="113,306.9 111,319.9 107.3,319.9 111,306.9 		"/>
		<polygon class="st2" points="110,322.9 108,327.9 105.1,327.9 107,322.9 		"/>
		<polygon class="st2" points="109,306.9 105.2,319.9 102,319.9 107,306.9 		"/>
		<polygon class="st2" points="104,322.9 103,327.9 98.8,327.9 101,322.9 		"/>
		<path class="st1" d="M-2.4,299.2c20.7,3.9,39.9,11.3,57.5,21.6C69.1,329,82,339,93,350.6v0.1v0.5v0.5l-80.3,75.5l21.4-25
			c-16.2-14-41.9-22-41.9-22L-8,382v-34.3c2,0.1,3.9,0.3,5.8,0.6c20.7,2.7,34.6,11.9,34.6,11.9l5.2-9l13.8-23.5l0,0
			c0,0-25.3-15.3-53.5-20.1c-2-0.3-3.8-0.6-5.8-0.9v-8.5C-7,298.4-4.4,298.8-2.4,299.2z"/>
		<path class="st1" d="M54.8,320.8C37.2,310.5,18,303.1-3,299.2V258l-3-3.1h-2h-1v-80H9l84,175.3v0.4C82,339,68.8,329,54.8,320.8z
			 M55.2,294.9c0-6.7-5.5-12.2-12.2-12.2s-12.2,5.4-12.2,12.2c0,6.8,5.4,12.2,12.2,12.2S55.2,301.6,55.2,294.9z M34.2,250.9
			c0-6.7-5.5-12.2-12.2-12.2s-12.2,5.4-12.2,12.2s5.4,12.2,12.2,12.2S34.2,257.6,34.2,250.9z"/>
		<path class="st3" d="M76,622.6l0.3-0.2l3.1,4.4l-15.6,10.9l-3.1-4.4l2-1.4l0.2-0.1c3.4-2.2,6.7-4.9,9.9-6.9h0.1L76,622.6z"/>
		<path class="st1" d="M75.6,620.3l0.3,2.1c-1,0.8-1.9,1.6-2.9,2.3l0,0l-0.1,0.2h-0.1l-9.9,6.8h-0.2c-0.9,0.6-1.8,1.2-2.8,1.8
			l-8.6-12.3l0,0l16.8-11.8L75.6,620.3z"/>
		<path class="st4" d="M72.8,598.9l2.9,21.5l-7.6-10.8l-16.8,11.7l0,0l0,0l-18.1,9.6l0,0l0,0l-19.1,7.3l0,0l0,0l-19.8,5l0,0l0,0
			l-20.2,2.5v0.2l0,0h-21l0,0v-0.2l-20.2-2.5l0,0l0,0l-19.8-5l0,0l0,0l-19.1-7.3l0,0l0,0l-18.1-9.6l0,0l0,0l-16.8-11.8l-7.6,10.8
			l2.9-21.5C-145.9,598.9-36.5,692.6,72.8,598.9z"/>
		<path class="st4" d="M75,528.6L75,528.6c0,15.7-16.7,24.9-16.7,24.9l0.2,0.1L29,529.7l0,0v-0.1c0,0,8.2-6.6,11.1-17.4L75,528.1
			V528.6z"/>
		<path class="st1" d="M-5.3,520.8l78,78c-109.2,93.7-218.6,0-218.6,0l78-78c8.7,6.5,19.5,10.3,31.2,10.3S-14,527.3-5.3,520.8z
			 M34.8,605.2l-9.4-17c0-1.9-0.4-3.8-1.2-5.7c-1.2-2.9-3.2-5.1-5.6-6.7l-5.1-9.3l-21.2,9l-0.4,0.7l3.3,10.6l0.1,0.2
			c-0.2,2.4,0.1,5,1.1,7.4c0.5,1.2,1.2,2.3,1.9,3.2l0.2,0.7l0,0l6.2,19.6L34.8,605.2z M8.6,552.6c0-8.3-6.8-15.1-15.1-15.1
			s-15.1,6.8-15.1,15.1c0,8.4,6.8,15.1,15.1,15.1S8.6,561,8.6,552.6z M-20.5,622.9l-2-19.2c0.7-1.8,1.1-3.6,1.1-5.6
			c0-3.1-0.9-6.1-2.5-8.5l-1.1-10.7h-23l-0.4,0.4l-1,11c-1.4,2.3-2.2,5-2.2,7.8c0,1.6,0.2,3.1,0.7,4.5l-2.1,20.3H-20.5L-20.5,622.9z
			 M-21.6,559.2c0-8.3-6.8-15.1-15.1-15.1s-15.1,6.8-15.1,15.1s6.8,15.1,15.1,15.1S-21.6,567.5-21.6,559.2z M-51.4,552.6
			c0-8.3-6.8-15.1-15.1-15.1s-15.1,6.8-15.1,15.1c0,8.4,6.8,15.1,15.1,15.1S-51.4,561-51.4,552.6z M-65,575.9l-0.2-0.3l-21.2-9.1
			l-5,9l0,0c0,0-0.1,0-0.1,0.1l0,0c-2,1.6-4.6,3.9-5.8,6.9c-0.8,1.8-1.1,3.7-1.2,5.6l0,0l0,0l-9.4,17l30.1,12.7l6.2-19.6l-0.2-0.2
			c0.9-1.1,1.7-2.4,2.3-3.8c1.1-2.5,1.4-5.1,1.1-7.6c-0.6-5.2-3.9-10-9.1-12.2c-0.7-0.3-1.4-0.6-2.2-0.7c0.7,0.2,1.5,0.4,2.2,0.7
			c5.2,2.2,8.5,7,9.1,12.2L-65,575.9z"/>
		<path class="st3" d="M57.8,635.2l2.5,4.7l-16.8,8.9l-2.5-4.7l2.4-1.2h0.1c3.8-2,7.4-3.8,11-6l0.2-0.1L57.8,635.2z"/>
		<path class="st1" d="M51.3,621.4l7.1,13.3c-1.2,0.7-2.3,1.4-3.5,2.1l0,0l-0.2,0.1l-11,6h-0.1c-0.2,0-0.4,0-0.6,0c0,0,0,0-0.1,0
			c-0.8,1-1.6,0.8-2.5,1.2l0,0l-7-13.2l0,0L51.3,621.4z"/>
		<path class="st0" d="M43.1,282.7c6.7,0,12.2,5.4,12.2,12.2c0,6.8-5.5,12.2-12.2,12.2s-12.2-5.5-12.2-12.2S36.3,282.7,43.1,282.7z"
			/>
		<path class="st4" d="M51.2,327.7l-13.8,23.5l-5.3,9c0,0-14.1-9.2-34.9-11.9c-1.9-0.3-4.2-0.5-6.2-0.6v-41c2,0.2,4.2,0.5,6.2,0.9
			C25.5,312.4,51.2,327.6,51.2,327.7L51.2,327.7z"/>
		
			<rect x="27.2" y="642" transform="matrix(0.3585 0.9335 -0.9335 0.3585 627.3441 390.0426)" class="st3" width="5.4" height="19"/>
		<path class="st0" d="M33.2,631l5.3,13.9c-1.1,0.5-2.2,1.2-3.3,1.2l0,0c-4.3,2-8.7,3.7-13.2,5.2l-0.2,0.2c-0.8,0.3-1.6,0.6-2.3,0.6
			l0,0c0,0,0,0.1-0.1,0.1l-5.3-13.8l0,0L33.2,631z"/>
		<path class="st4" d="M25.5,588.2l9.4,17L4.8,617.9l-6.2-19.6l0,0l-0.2-0.7c0.2,0.2,0.4,0.5,0.6,0.7s0.4,0.5,0.6,0.7
			c4.2,4.4,10.9,6,16.8,3.4c5.7-2.4,9.2-7.9,9.2-13.7L25.5,588.2L25.5,588.2z"/>
		<path class="st4" d="M34.2,402.2l-21.3,25l-2.1,1.8l0.2,0.1v0.1v0.1L0,441.4c0-0.1,0-0.1,0-0.1l0,0v0.1l0,0l0,0v0.1l0,0v0.1
			c-1-1.6-3.2-3.2-5-4.6c-0.2-0.2-0.4-0.4-0.6-0.5c-0.2-0.2-0.4-0.3-0.6-0.5c-0.4-0.3-0.8-0.2-1.2-0.5s-0.8-0.5-1.2-0.5
			c0,0,0,0-0.1,0c-0.2-1-0.5-0.6-0.7-0.7c-0.4-0.3-0.9-0.6-1.3-0.9l0,0l0,0c-3.4-2-7-3.3-11-4.5l0,0l0.5-1.9H-9v-44.7l0.7-1.8
			C-8.2,380.2,18,388.2,34.2,402.2z"/>
		<path class="st0" d="M22.1,238.7c6.7,0,12.2,5.4,12.2,12.2s-5.5,12.2-12.2,12.2s-12.2-5.4-12.2-12.2
			C9.9,244.1,15.3,238.7,22.1,238.7z"/>
		<path class="st0" d="M22.3,583.3c2.8,6.6-0.3,14.2-6.9,17s-14.2-0.3-17-6.9c-2.8-6.6,0.3-14.2,6.9-17S19.5,576.7,22.3,583.3z"/>
		<path class="st4" d="M13.5,566.4l5.1,9.3c-4.1-2.7-9.4-3.3-14.2-1.3c-5.3,2.2-8.6,7.1-9.2,12.4l-0.1-0.2L-8.2,576l0.4-0.7
			L13.5,566.4z"/>
		<polygon class="st3" points="17,653.4 18.3,658.6 -0.2,663.2 -1.5,658 -0.2,657.7 -0.2,657.7 		"/>
		<path class="st1" d="M14,638.5l3.7,14.7l0,0l0,0c-1.2,0-2.6,0.6-3.6,1v-0.1c-4,1.2-8.7,2.1-13.2,3.1l0,0c-0.2,0.2-0.5,0-0.7,0l0,0
			c-0.1,0.4-0.2,0.7-0.3,0.7h-0.1c-0.1,0-0.2-0.3-0.4-0.3c-0.5,0.1-1.1,0.2-1.6,0.3l0,0l-3.6-14.5l0,0L14,638.5z"/>
		<path class="st1" d="M13,478.2c0,0.2,0,0.3,0,0.5c0,3-0.7,5.9-1.2,8.7L-3,482.8v12l-20,6.6v24.4l0.3,0.2c-4.5,1.4-9,1.9-13.9,1.9
			h-0.3c-27.3,0-49.5-22-49.5-49.3c0-19.6,11.4-36.4,27.9-44.4c0.6-0.3,1.3-0.5,1.9-0.9l8.3,15c-2.9,2.9-4.7,6.9-4.7,11.4
			c0,8.9,7.2,16.1,16.1,16.1s16.1-7.2,16.1-16.1c0-4.3-1.7-8.2-4.4-11.1l0.3-0.2l8.2-14.8c0.6,0.3,1.3,0.6,1.9,0.9
			c0.9,0.4,1.9,0.9,2.8,1.4C2.7,444.2,12,460,13,478.2z"/>
		<path class="st4" d="M-3,482.6l14.7,4.6c-3.3,18.5-16.8,33.4-34.5,38.7l-0.2-0.4v-24.4l20-6.6V482.6z"/>
		<circle class="st0" cx="-6.5" cy="552.6" r="13"/>
		<path class="st0" d="M-5.7,643.5l1.7,14.8c-1.5,0.3-3.1,0.6-4.6,0.6h-0.3l-14.8,2l-0.6,0.2l-1.7-15V646L-5.7,643.5z"/>
		<path class="st3" d="M-4.8,658.5l0.7,5.4l-18.9,2.3l-0.6-5.2c1.2-0.1,2.4-0.3,3.6-0.4l0.1,0.1c0.1,0,0.3,0.1,0.4,0.1h0.1
			c3.5-1,7-1,10.5-2h0.2h0.3L-4.8,658.5z"/>
		<path class="st1" d="M-9,347.6v34.3v44h-12h-15.4h-0.4H-65V298.1v-35.2h56v35.2v8.5V347.6L-9,347.6z M-32,302.9v-32h-11v32H-32z"
			/>
		<path class="st4" d="M-35.8,436.2l0.8,1.5v5.9c0-0.1-1.5-0.2-2.2-0.2c-0.6,0-0.8,0-1.8,0.1v-5.8l1.2-1.5l0.2,0.1
			c-0.5-0.8-1.9-3.4-1.9-3.4h-0.1c0,0-1.7,2.6-2.2,3.4l0.8,1.4v6.2c-3,0.7-5.4,2.2-7.5,4.3l-8.2-15.1c6-2.6,12.8-4.2,19.8-4.2h0.3
			c7.1,0,13.8,1.6,19.9,4.4l-8.2,14.8l-0.5,0.2c-2-2.1-4.7-3.7-7.7-4.5v-6.3l1.2-1.4c-0.5-0.8-1.8-3.3-1.8-3.3h-0.1
			C-33.7,432.9-35.4,435.5-35.8,436.2L-35.8,436.2z"/>
		<path class="st4" d="M-22.5,603.7l2,19.2H-53l2.1-20.3c2,6.1,7.7,10.5,14.4,10.5C-30.2,613.2-24.7,609.3-22.5,603.7z"/>
		<path class="st4" d="M-25,579l1.1,10.7c-2.7-4.1-7.3-6.7-12.6-6.7c-5.5,0-10.3,2.9-13,7.3l1-11l0.4-0.4L-25,579L-25,579z"/>
		<path class="st0" d="M-32.5,446c5.7,1.8,9.9,7.1,9.9,13.5c0,7.8-6.3,14.1-14.1,14.1s-13.9-6.3-13.9-14.1c0-6.5,4.6-12,10.6-13.6
			v4.3c0,0,0,0.1-0.1,0.1c-1.7,1.2-2.9,3.2-2.9,5.5v6.1c0,1.5,0.2,2.9,1.1,4c0,0-0.1,0-0.1,0.1v1.9h1.9c1,1,2.3,1,3.6,1s2.6-1,3.7-1
			h1.8v-2.1c1-1.1,2-2.4,2-3.9v-6.1c0-1.9-1.1-3.6-2.3-4.8c-0.2-0.2-0.6-0.4-0.9-0.6c0,0-0.1,0-0.2-0.1L-32.5,446L-32.5,446
			L-32.5,446z"/>
		<path class="st1" d="M-26,646.1v15.1c-3,0.1-4.8-0.3-7-0.3c-1.2,0-2.3,0-3.5,0h-0.3c-1.3,0-2.6,0.3-3.9,0.3
			c-2.1,0-4.3,0.2-6.3,0.1v-15.1L-26,646.1L-26,646.1z"/>
		<circle class="st0" cx="-36.5" cy="598.2" r="13"/>
		<rect x="-46" y="660.9" class="st3" width="19" height="6"/>
		<circle class="st0" cx="-36.8" cy="559.2" r="13"/>
		<path class="st1" d="M-30,455.9v6.1c0,1.4,0,2.8-1,3.9v-4h-2v-11.5c0,0,0.2,0,0.3,0.1c0.2,0.2,0.4,0.4,0.7,0.6
			C-30.8,452.3-30,454-30,455.9z"/>
		<polygon class="st4" points="-31,465.9 -31,467.9 -32.9,467.9 -40.2,467.9 -42,467.9 -42,466 -42,461.9 -40.5,461.9 -38.5,461.9 
			-34.5,461.9 -32.5,461.9 -31,461.9 		"/>
		<rect x="-43" y="270.9" class="st4" width="11" height="32"/>
		<path class="st0" d="M-35.8,436.2L-35.8,436.2c0.5-0.7,2.1-3.3,2.1-3.3h0.1c0,0,1.3,2.6,1.8,3.4l-1.2,1.4v6.3v2.1v4.4v11.4h-2
			v-12.5v-3.8v-2v-5.9L-35.8,436.2z"/>
		<path class="st1" d="M-35,449.4v12.5h-4v-12.7l0,0c0,0,1.2-0.2,1.9-0.2C-36.4,449-35,449.2-35,449.4z"/>
		<path class="st0" d="M-35,445.6v3.8c0-0.2-1.3-0.4-2.1-0.4c-0.7,0-0.9,0.2-1.9,0.2l0,0v-3.6c1-0.1,1.2-0.1,1.8-0.1
			C-36.5,445.4-35,445.5-35,445.6z"/>
		<path class="st1" d="M-70.8,299.2c2,0,3.8-1,5.8-1l0,0v127.7h28.2c-24,0-44.2,16.6-50.3,38.6l-103.4-21.1l-24-4.9l-0.6-0.1
			c7.7-34,24.8-64.5,48.5-88.4c0.1-0.1,0.1-0.1,0.1-0.2l0,0C-141,324.1-107.9,306.2-70.8,299.2L-70.8,299.2z M-146.4,354.9
			c1,1,8.8,6.4,15.4,8.5c-2.6,2.4-4.2,6-4.2,9.8c0,7.3,5.9,13.2,13.2,13.2s13.2-5.9,13.2-13.2c0-3.9-1.7-7.5-4.5-9.9
			c6.5-2.2,14.1-7.4,15.1-8.1l-0.1-0.2c1.8-1.2,2.7-2.5,2.7-4s-1.1-2.9-3-4.1c-2.4-1.6-6.1-2.9-10.7-3.7c-0.8-0.2-1.7-0.3-2.6-0.4
			c-0.2,0-0.5-0.1-0.7-0.1c-0.4-0.1-0.8-0.1-1.2-0.1s-0.8-0.1-1.2-0.1c-0.3,0-0.6-0.1-0.9-0.1c-0.4,0-0.8-0.1-1.2-0.1
			c-0.5,0-1.1-0.3-1.6-0.3c-0.6,0-1.1-0.3-1.7-0.3s-1.2,0-1.8,0h-0.2c-0.6,0-1.2,0-1.7,0c-0.7,0-1.4,0.2-2.1,0.3
			c-0.4,0-0.8,0.1-1.2,0.2c-1.1,0.1-2.1,0.2-3.2,0.3c-0.2,0-0.3,0-0.5,0.1c-0.2,0-0.4,0-0.5,0.1c-0.2,0-0.3,0.1-0.5,0.1
			c-0.1,0-0.1,0-0.2,0c-0.4,0-0.8,0-1.2,0h-0.1c-0.1,0-0.2,0.2-0.3,0.2c-0.4,0.1-0.9,0.2-1.3,0.3c-4.6,0.9-8.3,2.1-10.7,3.7
			c-1.9,1.2-3,2.4-3,3.9c0,1.4,1,2.8,2.7,3.8h-0.2L-146.4,354.9L-146.4,354.9z"/>
		<path class="st0" d="M-37.8,436.2l-1.2,1.5v5.8v2v3.6v12.8h-2v-11.8v-4.3v-2v-6.2l-0.8-1.4c0.5-0.8,2.2-3.3,2.2-3.3h0.1
			c0,0,1.4,2.6,1.9,3.3H-37.8z"/>
		<path class="st1" d="M-41,450.2v11.7h-1v4.2c0,0-0.2-0.1-0.4-0.1c-0.8-1.1-1.6-2.5-1.6-4v-6.1c0-2.3,1.2-4.3,2.8-5.5
			C-41.1,450.3-41,450.2-41,450.2z"/>
		<polygon class="st1" points="-47,646 -47,646.1 -48.8,661.1 -49.5,661 -68.4,658.7 -69.1,658.6 -67.3,643.5 		"/>
		<path class="st3" d="M-49.4,661.1l-0.6,5.2l-18.9-2.3l0.6-5.2c0.5,0.2,0.8,0.3,1.4,0.3l0,0V659v0.1c5,0.8,9.9,1,14.8,2l0,0
			C-51.4,661.2-50.2,661.1-49.4,661.1z"/>
		<circle class="st0" cx="-66.5" cy="552.6" r="13"/>
		<path class="st1" d="M-65,174.9v80l0,0h-2l-4,3.1v40.9h0.4c-37,7-70.2,25-95.8,50.6l84.3-174.6H-65L-65,174.9z M-82.9,250.9
			c0-6.7-5.4-12.2-12.2-12.2c-6.7,0-12.2,5.4-12.2,12.2s5.5,12.2,12.2,12.2S-82.9,257.6-82.9,250.9z M-103.9,294.9
			c0-6.7-5.4-12.2-12.2-12.2c-6.7,0-12.2,5.4-12.2,12.2c0,6.8,5.5,12.2,12.2,12.2S-103.9,301.6-103.9,294.9z"/>
		<path class="st4" d="M-65.2,575.6l0.2,0.3l-3.3,10.8c-0.6-5.2-3.9-10-9.1-12.2c-0.7-0.3-1.5-0.6-2.2-0.7c-0.2-0.1-0.5-0.1-0.7-0.2
			c-0.1,0-0.3-0.1-0.4-0.1c-0.2,0-0.4-0.1-0.6-0.1s-0.4-0.2-0.6-0.2c-0.5,0-1-0.3-1.4-0.3s-0.7,0-1,0l0,0c-0.4,0-0.7,0.2-1.1,0.3
			c-0.3,0-0.6,0.2-0.9,0.3c-0.2,0-0.4,0.1-0.6,0.1c-0.3,0.1-0.6,0.2-0.9,0.3c-0.2,0-0.3,0.1-0.4,0.2c-0.1,0-0.3,0.1-0.4,0.2
			c-0.2,0.1-0.3,0.1-0.5,0.2c-0.1,0-0.2,0.1-0.3,0.2c-0.2,0.1-0.4,0.2-0.5,0.2c-0.5,0.2-1,0.5-1.4,0.8l0,0l0,0l0,0l5-9L-65.2,575.6z
			"/>
		<path class="st1" d="M-71.1,658.2L-71.1,658.2l-0.5-0.2l-16.6-4.1h-0.2c-0.6,0-1.1-0.5-1.7-0.7c-0.1,0-0.2-0.3-0.3-0.3l0,0
			c-0.1,0-0.2,0-0.4,0l3.7-14.5l19.9,5.1l0,0l-3.7,14.8L-71.1,658.2z"/>
		<path class="st1" d="M-113.6,512.3l-35.4,15.9v0.7h0.4c5.8,16,17,24.8,17,24.8h-0.1l29.7-24l0,0v-0.1
			C-102,529.7-110.6,523.1-113.6,512.3z M-67.8,520.8l-78,78l-2.9,21.5l-1.2,1.7l0.6,0.6l-0.1,0.3c0,0,0,0-0.1,0
			c-11.3-9-21.6-19.3-30.5-30.5c-17-21.4-29.6-46.5-35.6-74.5h1l24-5l103.1-21.4c0.7,2.7,1.6,5.3,2.7,7.8c1.8,4.1,4,7.9,6.7,11.4
			C-75,514.6-71.6,518-67.8,520.8z"/>
		<path class="st0" d="M-78.3,576.4c6.6,2.8,9.7,10.4,6.9,17c-2.8,6.6-10.4,9.7-17,6.9s-9.7-10.4-6.9-17
			C-92.5,576.7-84.9,573.6-78.3,576.4z"/>
		<path class="st4" d="M-71.5,598.3l-6.2,19.6l-30.1-12.7l9.4-17l0,0l0,0c-0.1,6,3.3,11.7,9.2,14.2c6.3,2.7,13.4,0.8,17.5-4.2
			L-71.5,598.3z"/>
		<path class="st3" d="M-71.6,658.2l-1.3,5.1l-18.4-4.6l1.3-5.2l1.7,0.4h0.3v0.2c5,1.5,9.9,2,15,4l0,0
			C-72.6,658.2-72.1,658.1-71.6,658.2L-71.6,658.2z"/>
		<path class="st0" d="M-95.1,238.7c6.7,0,12.2,5.4,12.2,12.2s-5.4,12.2-12.2,12.2c-6.7,0-12.2-5.4-12.2-12.2
			C-107.3,244.1-101.8,238.7-95.1,238.7z"/>
		<polygon class="st1" points="-87.1,638.4 -87.1,638.4 -92.5,652.6 -93.2,652.4 -111,645.6 -111.7,645.3 -106.2,631 		"/>
		<path class="st1" d="M-191,443.5l103.6,21.2c-1.2,4.4-1.8,9.1-1.8,13.9c0,4.5,0.4,8.9,1.4,13L-191,512.8v-0.1V443.5L-191,443.5z"
			/>
		<path class="st3" d="M-93.3,652.4l-1.9,4.9l-17.7-6.8l1.9-5C-105.2,648.2-99.3,650.5-93.3,652.4z"/>
		<path class="st0" d="M-95.5,351.2c0,1.4-1,2.6-2.7,3.9c-4.2,2.9-12.9,4.9-22.9,4.9h-1.7c-10.3,0-19.1-1.9-23.4-4.9
			c-1.8-1.2-2.7-2.4-2.7-3.9s1.1-3,3-4.2c0.6,1.1,4.5,8,14.6,10h18.3c10.3-2,14.2-9.1,14.7-9.9C-96.6,348.1-95.5,349.7-95.5,351.2z"
			/>
		<path class="st1" d="M-129,375.2v4.7h-2v-13.2l1.7-2.5c-0.6-0.1-1.2-0.3-1.8-0.5c-6.6-2.1-14.3-7.6-15.3-8.3l0.1-0.4
			c4.3,2.9,13.1,4.9,23.4,4.9h1.7c10.1,0,18.7-1.9,22.9-4.9l0.1,0.3c-1,0.7-8.6,5.9-15.1,8.1c-0.8,0.3-1.9,0.5-2.7,0.7l1,2.5v13.2
			h-2v-4.7v-8.5l-1.1-2.5c-4.7,1.6-9.2,0-9.2,0l-1.7,2.5V375.2L-129,375.2z"/>
		<path class="st0" d="M-98.5,347c-0.5,0.9-4.4,7.3-14.7,10.1l-2.5-1.7c7.9-7,6.5-12.1,6.5-12.1C-104.6,344.2-100.9,345.5-98.5,347z
			"/>
		<path class="st4" d="M-101.7,529.7L-101.7,529.7L-101.7,529.7l-29.9,24h-0.1c0,0-11.3-8.8-17-24.8h-0.3v-0.7l35.6-15.9
			C-110.4,523.1-101.7,529.7-101.7,529.7z"/>
		<path class="st0" d="M-106.2,631L-106.2,631l-7.2,13.5l-0.6-0.3l-0.1-0.1l-13.8-7.3l-0.3-0.4c-0.8-0.5-1.6-0.6-2.4-1.6l0,0
			c0,0-0.2,0-0.3,0l-0.6-0.1l7.2-13.4L-106.2,631z"/>
		<path class="st0" d="M-116.1,282.7c6.7,0,12.2,5.4,12.2,12.2c0,6.8-5.4,12.2-12.2,12.2c-6.7,0-12.2-5.5-12.2-12.2
			S-122.8,282.7-116.1,282.7z"/>
		<path class="st0" d="M-109.2,343.3c0,0,1.2,5.1-6.7,12.1c-2.4-1.8-5-2.4-7-2.3v-0.5v-10l2.2-0.5c0.6,0,1.3,0,1.8,0.1
			c0.5,0,1.2,0.1,1.7,0.1c0.4,0,0.8,0,1.2,0.1c0.3,0,0.6,0,0.9,0.1c0.4,0,0.8,0.1,1.2,0.1s0.8,0.1,1.2,0.1c0.2,0,0.5,0.1,0.7,0.1
			C-111,343-110,343.1-109.2,343.3z"/>
		<path class="st0" d="M-113.3,363.4c2.7,2.4,4.5,5.9,4.5,9.9c0,7.3-5.9,13.2-13.2,13.2c-7.3,0-13.2-5.9-13.2-13.2
			c0-3.8,1.6-7.3,4.2-9.7c0.7,0.2,1.1,0.4,1.7,0.5l-1.7,2.5v13.3h2v-5h11.9h0.1v5h2v-13.3l-1-2.5
			C-115.1,364-114.1,363.7-113.3,363.4z"/>
		<path class="st1" d="M-113.1,356.9h-18.3l2.6-1.6c0,0,2.6-2.1,6.3-2.2c2-0.1,4.4,0.4,6.8,2.2L-113.1,356.9z"/>
		<path class="st3" d="M-114.1,644.1L-114.1,644.1l-2.5,4.7l-16.8-8.9l2.5-4.7l2.7,1.4l0.3,0.2
			C-123.5,639.3-118.8,641.9-114.1,644.1z"/>
		<path class="st0" d="M-117,366.6v8.3l0,0h-12v-8.3l1.8-2.5c0,0,4.3,1.6,9,0L-117,366.6z"/>
		<path class="st0" d="M-120.5,341.9l-2.5,0.8v10v0.5c-3,0.1-6.1,2.3-6.1,2.3c-7.6-6.1-6.4-12.1-6.4-12.1c0.4-0.1,1-0.2,1.4-0.2
			c0.1,0,0.2,0,0.3-0.1c0.4-0.1,0.9-0.2,1.3-0.2c0,0,0.1,0,0.2,0c0.2,0,0.4,0,0.5-0.1c0.3,0,0.7-0.1,1-0.1c1-0.1,2.1-0.2,3.2-0.3
			c0.4,0,0.8-0.3,1.2-0.3c0.7,0,1.4-0.3,2.1-0.3c0.6,0,1.1,0,1.7,0h0.2C-121.7,341.9-121.1,341.9-120.5,341.9z"/>
		<path class="st1" d="M-148.8,622.8l-0.2-0.2l-0.3-0.2l-0.6-0.4l1.2-1.7l7.6-10.8l16.8,11.8l0,0l-8.7,12.4l-0.3-0.2l0,0
			c-0.1-0.1-0.2-0.2-0.4-0.4l0,0c-0.3-0.2-0.7-0.4-1-0.6l0,0L-148.8,622.8z"/>
		<path class="st0" d="M-128.8,355.4l-2.6,1.8c-10.1-2.7-14-9-14.6-10.1c2.4-1.6,6.1-2.9,10.7-3.7
			C-135.3,343.3-136.4,349.3-128.8,355.4z"/>
		<path class="st3" d="M-133.7,633.3l-3.1,4.4l-15.6-10.8l3-4c0.1,0,0.2,0,0.3,0c0,0,0,0,0.1,0c4.5,3,9.3,6.8,14.1,9.6l0,0
			L-133.7,633.3z"/>
		<polygon class="st0" points="-191,443.6 -191,512.7 -218,501.3 -218,455 		"/>
	</g>
	<g>
		<path class="st5" d="M124.4,392.6C124.4,392.6,124.4,392.5,124.4,392.6"/>
		<path class="st5" d="M-134.8,632.6c0.3,0.2,0.7,0.4,1,0.6l0,0c0.1,0.1,0.2,0.2,0.4,0.4"/>
		<path class="st5" d="M-149,622.4c0,0-0.2,0-0.1,0C-149.1,622.4-149.1,622.4-149,622.4c4.5,4,9.5,7,14.3,9.8"/>
		<path class="st5" d="M-114.1,644.2L-114.1,644.2C-114,644.1-114,644.1-114.1,644.2c-4.7-2.3-9.4-4.9-13.8-7.4"/>
		<path class="st5" d="M-111.7,645.3c0.2,0.1,0.5,0.2,0.7,0.3l0,0c5.8,2.6,11.7,4.9,17.7,6.8"/>
		<path class="st5" d="M-88.3,654c-0.6-0.2-1.1-0.2-1.7-0.4c-0.1,0-0.2-0.2-0.3-0.2l0,0c-0.1,0-0.2,0-0.4,0c-0.1,0-0.3,0-0.3,0"/>
		<path class="st5" d="M-71.1,658.4C-71.1,658.4-71.2,658.4-71.1,658.4L-71.1,658.4c-0.2,0-0.4,0-0.5,0l0,0l0,0h-0.1
			c-0.4,0-1.1-0.1-1.5-0.1l0,0c-5.1-2-10.3-2.6-15.3-4.1v-0.3"/>
		<path class="st5" d="M-71,658.2C-71,658.2-71.1,658.2-71,658.2"/>
		<path class="st5" d="M-49,661.4c0,0-2,0-2.9,0l0,0c-4.9,0-9.6-1.5-14.6-2.3V659l-0.2,0.1l0,0c-0.5,0-0.8-0.1-1.4-0.2"/>
		<path class="st5" d="M-26.3,661.2c-2.2,0.1-4.5,0.2-6.7,0.2c-1.2,0-2.3,0-3.5,0h-0.3c-1.3,0-2.5,0-3.8,0c-2.1,0-4.2,0-6.2-0.1"/>
		<path class="st5" d="M141.6,517.7C141.6,517.7,141.5,517.7,141.6,517.7"/>
		<path class="st5" d="M73,624.7L73,624.7c1-0.8,2-1.5,3-2.3c0.2-0.2,0.5-0.4,0.7-0.6"/>
		<path class="st5" d="M62.9,631.8c3.4-2.2,6.7-4.5,9.9-6.9"/>
		<path class="st5" d="M54.8,636.7L54.8,636.7c1.2-0.7,2.4-1.4,3.5-2.1c0.5-0.3,1.1-0.7,1.6-1c0.9-0.6,1.8-1.2,2.8-1.8"/>
		<path class="st5" d="M43.5,642.7c3.8-1.8,7.4-3.8,11-5.9"/>
		<path class="st5" d="M38.5,644.9C38.5,644.9,38.6,644.9,38.5,644.9c0.6-0.3,1.2-0.3,1.7-0.6l0,0c0.8-0.4,1.7-0.9,2.5-0.9h0.1
			c0.2,0,0.4-0.4,0.6-0.5"/>
		<path class="st5" d="M-0.2,657.7c0.1,0,0.2-0.2,0.3-0.6l0,0c0.2,0,0.3,0.2,0.5,0l0,0c4.5-1,9-1.9,13-3.1v0.1c2-0.3,2.6-1,3.8-1
			l0,0l0,0c0.6,0,1.2,0,1.8-0.9"/>
		<path class="st5" d="M-2.2,657.9L-2.2,657.9c0.6-0.1,1.1-0.3,1.6-0.3c0.1,0,0.2,0.2,0.4,0.2"/>
		<path class="st5" d="M-9,659.4L-9,659.4c-3.5,0-6.9,1-10.5,1h-0.1c-0.1,0-0.3,0.1-0.4,0.1l-0.1,0.1c-1.2,0.1-2.5,0.5-3.7,0.5"/>
		<path class="st5" d="M-215.6,438.4h0.4l0,0"/>
		<path class="st5" d="M-8.5,298.1c2,0.3,4,0.6,6,1c20.7,3.9,40.2,11.3,57.8,21.6c14,8.2,26.9,18.2,38.2,29.8"/>
		<path class="st5" d="M76.7,621.8L76.7,621.8c32.4-25.7,55.8-62.2,65-104l-0.1-0.1l-0.1,0.1l-24-4.9"/>
		<polyline class="st5" points="-5.3,520.8 72.8,598.9 75.6,620.3 		"/>
		<polyline class="st5" points="-64.5,255.9 -64.5,255.2 -64.5,175.4 -82,175.4 -166.4,350 		"/>
		<polyline class="st5" points="-8.5,255.9 -8.5,255.2 -8.5,175.4 9,175.4 93.5,350.3 		"/>
		<line class="st5" x1="93" y1="343.4" x2="141" y2="343.4"/>
		<line class="st5" x1="93.5" y1="349.9" x2="93.5" y2="343.9"/>
		<path class="st5" d="M93.5,350.5c0.1,0.1,0.3,0.3,0.4,0.4l-0.4-0.9"/>
		<polyline class="st5" points="10.9,429.2 12.9,427.3 93.5,351.6 93.5,351.2 93.5,350.9 		"/>
		<polyline class="st5" points="0.6,441.5 10.9,429.4 10.9,429.4 11,429.4 		"/>
		<path class="st5" d="M0.6,441.3C0.6,441.2,0.6,441.2,0.6,441.3L0.6,441.3C0.5,441.2,0.5,441.3,0.6,441.3L0.6,441.3L0.6,441.3z"/>
		<path class="st5" d="M22.8,444l-11.9-14.8l0,0l0,0L0.5,441.3l0,0v-0.4"/>
		<line class="st5" x1="30" y1="453.2" x2="25.7" y2="447.7"/>
		<polyline class="st5" points="141.5,343.9 141.5,381.6 124.5,392.7 		"/>
		<polyline class="st5" points="93.5,350.6 93.5,350.5 93.5,350.1 93.5,349.6 		"/>
		<polyline class="st5" points="93.5,343.9 93.5,343.2 93.5,335.2 95.2,330.3 104.5,303.4 118,303.4 131.5,303.4 139.9,330.3 
			141.5,335 141.5,335 141.5,335.2 141.5,343.2 141.5,343.9 		"/>
		<polyline class="st5" points="124.5,392.6 124.5,392.6 124.4,392.9 		"/>
		<polyline class="st5" points="140,330.4 139.9,330.4 95.2,330.4 95,330.4 		"/>
		<polyline class="st5" points="141,335.4 93.5,335.4 93,335.4 		"/>
		<path class="st5" d="M55.2,294.9c0,6.7-5.5,12.2-12.2,12.2s-12.2-5.5-12.2-12.2s5.4-12.2,12.2-12.2S55.2,288.2,55.2,294.9z"/>
		<path class="st5" d="M34.2,250.9c0,6.7-5.5,12.2-12.2,12.2s-12.2-5.4-12.2-12.2c0-6.8,5.4-12.2,12.2-12.2S34.2,244.2,34.2,250.9z"
			/>
		<path class="st5" d="M-82.9,250.9c0,6.7-5.4,12.2-12.2,12.2c-6.7,0-12.2-5.4-12.2-12.2c0-6.8,5.5-12.2,12.2-12.2
			S-82.9,244.2-82.9,250.9z"/>
		<path class="st5" d="M-103.9,294.9c0,6.7-5.4,12.2-12.2,12.2c-6.7,0-12.2-5.5-12.2-12.2s5.5-12.2,12.2-12.2
			S-103.9,288.2-103.9,294.9z"/>
		<polyline class="st5" points="-70.5,299.9 -70.5,299.2 -70.5,258 -67,255.4 -65,255.4 		"/>
		<polyline class="st5" points="-8,255.4 -6,255.4 -2.5,258 -2.5,299.2 -2.5,299.9 		"/>
		<polyline class="st5" points="-8.5,306.9 -8.5,298.1 -8.5,263.4 -64.5,263.4 -64.5,297.9 		"/>
		<line class="st5" x1="-8.5" y1="381.9" x2="-8.5" y2="347.9"/>
		<line class="st5" x1="-37" y1="426.4" x2="-21" y2="426.4"/>
		<rect x="-42.5" y="271.4" class="st5" width="11" height="32"/>
		<path class="st5" d="M-122.9,360.2c-10.3-0.1-19.1-2.1-23.4-5"/>
		<path class="st5" d="M-134,343.1c-0.4,0.1-0.9,0.1-1.3,0.2"/>
		<path class="st5" d="M-98.2,355.1c-4.2,2.9-12.9,4.9-22.9,5"/>
		<path class="st5" d="M-98.4,346.9c0,0,0,0.2-0.1,0.2c-0.5,0.9-4.4,7.2-14.7,10.2h-18.3c-10.1-3-14-9.2-14.6-10.2
			c-0.1-0.1-0.1-0.3-0.1-0.3"/>
		<path class="st5" d="M-135.3,343.3c0,0-1.1,6,6.5,12.1c0,0,2.6-2.2,6.3-2.3c2-0.1,4.4,0.5,6.8,2.3c7.9-7,6.5-12.1,6.5-12.1"/>
		<line class="st5" x1="-122.5" y1="342.9" x2="-122.5" y2="352.9"/>
		<line class="st5" x1="-115.7" y1="355.4" x2="-113.1" y2="357.2"/>
		<line class="st5" x1="-128.8" y1="355.4" x2="-131.4" y2="357.2"/>
		<path class="st5" d="M-98,355.2c0,0,0,0-0.1,0.1"/>
		<path class="st5" d="M-113.3,363.4c-0.8,0.3-1.6,0.5-2.4,0.7l1.3,2.5v13.8h-2v-5.3v-8.5l-1.4-2.5c-4.7,1.6-9.1,0-9.1,0l-1.6,2.5
			v8.5v5.3h-2v-13.8l1.4-2.5c-0.6-0.1-1.3-0.3-1.9-0.5"/>
		<path class="st5" d="M-146.4,355.3c-0.1,0-0.1-0.1-0.1-0.1"/>
		<polyline class="st5" points="-129,375.4 -128.5,375.4 -117,375.4 		"/>
		<path class="st5" d="M-22.4,526.1c-4.5,1.4-9.2,2.2-14.1,2.2h-0.3c-27.3,0-49.5-22.4-49.5-49.6c0-19.6,11.4-36.6,27.9-44.6
			c0.6-0.3,1.3-0.5,1.9-0.8c6-2.6,12.7-4,19.7-4h0.3c7.1,0,13.8,1.4,19.9,4.1c0.6,0.3,1.3,0.5,1.9,0.8c0.9,0.4,1.6,0.9,2.5,1.4
			c14.7,8.5,24.7,24.3,24.7,42.4c0,0.2,0,0.3,0,0.5c0,3-0.2,6-0.7,8.8"/>
		<path class="st5" d="M-67.8,520.8c8.7,6.5,19.5,10.3,31.2,10.3s22.5-3.8,31.2-10.3c9.5-7.1,16.6-17.3,19.6-29.2"/>
		<path class="st5" d="M-10.7,433.1c-3.5-2-7.2-3.5-11.1-4.7l0,0c-4.7-1.4-9.7-2-14.8-2H-37"/>
		<path class="st5" d="M-9.2,433.8c-0.4-0.3-0.9-0.5-1.3-0.8"/>
		<path class="st5" d="M0.6,441.5L0.6,441.5L0.6,441.5C0.5,441.5,0.5,441.5,0.6,441.5c-1.7-1.7-3.5-3.2-5.3-4.6"/>
		<path class="st5" d="M14.1,464.7L14.1,464.7"/>
		<path class="st5" d="M-22.4,526l-0.1-0.4v-24.4l20-6.6v-12l14.5,4.6C8.7,505.8-4.8,520.7-22.4,526z"/>
		<path class="st5" d="M-34.5,443.6c-0.7-0.1-1.5-0.2-2.2-0.2c-0.6,0-1.2,0-1.8,0.1"/>
		<path class="st5" d="M-32.5,444c2.9,0.8,5.5,2.4,7.5,4.5c2.8,2.9,4.4,6.8,4.4,11.1c0,8.9-7.2,16.1-16.1,16.1s-16.1-7.2-16.1-16.1
			c0-4.4,1.8-8.4,4.7-11.4c2.1-2.1,4.7-3.6,7.7-4.3"/>
		<path class="st5" d="M-34.5,445.6c-0.7-0.1-1.5-0.2-2.2-0.2c-0.6,0-1.2,0-1.8,0.1"/>
		<path class="st5" d="M-32.5,446c5.7,1.8,9.9,7.1,9.9,13.5c0,7.8-6.3,14.1-14.1,14.1s-14.1-6.3-14.1-14.1c0-6.5,4.4-12,10.4-13.6"
			/>
		<path class="st5" d="M-39.5,432.7c0,0,1.5,2.7,2,3.4l0,0l-0.9,1.5v5.8v2v3.6v12.9"/>
		<path class="st5" d="M-39.5,432.6c0,0-1.5,2.7-2,3.4l1,1.5v6.2v2v4.3v11.8"/>
		<polyline class="st5" points="-41,436.4 -37.6,436.4 -37,436.4 		"/>
		<path class="st5" d="M-33.6,432.6c0,0-1.5,2.7-2,3.4l0.1,0.1l1,1.5v5.9v2v3.8v12.6"/>
		<path class="st5" d="M-33.5,432.6c0,0,1.5,2.7,2,3.4l-1,1.5v6.3v2.1v4.4v11.5"/>
		<polyline class="st5" points="-32,436.4 -35.5,436.4 -36,436.4 		"/>
		<path class="st5" d="M-40.2,467.7c1,0.7,2.3,1,3.6,1s2.6-0.4,3.7-1"/>
		<path class="st5" d="M-39,449.4h0.5l0,0c0.6,0,1.2-0.3,1.9-0.3s1.4,0.2,2.1,0.5"/>
		<path class="st5" d="M-32.5,450.4L-32.5,450.4c0.3,0.2,0.6,0.4,0.9,0.7c1.2,1.2,2.1,2.9,2.1,4.8v6.1c0,1.4-0.8,2.8-1.6,3.9
			l-0.1,0.1"/>
		<path class="st5" d="M-40.5,450.2C-40.5,450.2-40.5,450.3-40.5,450.2c-1.8,1.3-3,3.3-3,5.6v6.1c0,1.5,0.5,2.9,1.4,4
			c0,0,0,0,0.1,0.1"/>
		<polygon class="st5" points="-31.5,465.9 -31.5,467.4 -32.9,467.4 -40.2,467.4 -42.5,467.4 -42.5,466 -42.5,461.4 -40.5,461.4 
			-38.5,461.4 -34.5,461.4 -32.5,461.4 -31.5,461.4 		"/>
		<path class="st5" d="M0.6,441.7L11,429.5l0,0l19,23.7l0,0l94.4-61l0,0l0.2,0.1c0,0,0,0,0,0.1v0.5"/>
		<path class="st5" d="M124.5,392.6c7.6,14.2,13.3,29.6,17,45.6l0,0l-24,5.1L14.1,464.6"/>
		<path class="st5" d="M0.5,441.5L0.5,441.5C0.5,441.5,0.6,441.4,0.5,441.5h0.1h0.1c6.3,6.3,11,13.9,13.4,22.9H14
			C11.5,455.4,6.5,447.8,0.5,441.5"/>
		<path class="st5" d="M124.5,392.6L124.5,392.6L124.5,392.6c0,0,0-0.1-0.1-0.2C124.5,392.4,124.5,392.5,124.5,392.6
			C124.5,392.5,124.5,392.5,124.5,392.6C124.5,392.5,124.5,392.6,124.5,392.6z"/>
		<line class="st5" x1="14.3" y1="491.7" x2="14.1" y2="491.6"/>
		<path class="st5" d="M117.5,512.8L117.5,512.8l-103.4-21c1.1-4.2,1.4-8.6,1.4-13.1c0-0.2,0-0.3,0-0.5c0-4.7-0.5-9.2-1.6-13.5
			l103.6-21.2v0.4"/>
		<polyline class="st5" points="144.5,455.9 144.5,501.3 117.5,512.7 117.5,443.6 144.4,455.1 		"/>
		<path class="st5" d="M144.4,455L144.4,455l0.1,0.7C144.5,455.5,144.4,455.2,144.4,455z"/>
		<path class="st5" d="M-131.7,342.7c0.3,0,0.7-0.1,1-0.1"/>
		<path class="st5" d="M-133.7,343c0.4-0.1,0.9-0.1,1.3-0.2"/>
		<path class="st5" d="M-87.1,464.8c6.1-22.1,26.3-38.4,50.3-38.4h-27.7V298.2l0,0c0,0-4,1.2-6,1.2h-0.1c-37,7-70.2,24.9-95.8,50.5
			l0,0c-0.1,0.1-0.2,0-0.2,0.1c-23.8,23.9-40.9,54.4-48.5,88.4l0.6,0.1l24,4.9"/>
		<path class="st5" d="M-98.2,355.1l0.1,0.2c-1,0.7-8.6,5.9-15.1,8.1c2.7,2.4,4.5,5.9,4.5,9.9c0,7.3-5.9,13.2-13.2,13.2
			c-7.3,0-13.2-5.9-13.2-13.2c0-3.8,1.6-7.3,4.2-9.7c-6.6-2.1-14.4-7.6-15.4-8.3l0.1-0.2c-1.8-1.2-2.7-2.5-2.7-4s1.1-2.9,3-4.1
			c2.4-1.6,6.1-2.9,10.7-3.7c0.4-0.1,0.9,0,1.3,0c0.1,0,0.2,0.1,0.3,0.1h0.1c0.4,0,0.8,0,1.2-1c0,0,0.1,0,0.2,0
			c0.2,0,0.4,0.2,0.5,0.1c0.2,0,0.4,0.1,0.5,0c0.1,0,0.3,0,0.5,0c1-0.1,2.1-0.2,3.2-0.3c0.4,0,0.8,0.1,1.2,0.1
			c0.7,0,1.4,0.1,2.1,0.1c0.6,0,1.1,0,1.7,0h0.2c0.6,0,1.2,0,1.8,0s1.2-0.2,1.7-0.1c0.5,0,1.1,0,1.6,0c0.4,0,0.8,0,1.2,0
			c0.3,0,0.6,0,0.9,0.1c0.4,0,0.8,0.1,1.2,0.1s0.8,0.1,1.2,0.1c0.2,0,0.5,0.1,0.7,0.1c0.9,0.1,1.8,0.3,2.6,0.4
			c4.6,0.9,8.3,2.2,10.7,3.7c1.9,1.2,3,2.6,3,4.1C-95.5,352.6-96.5,353.9-98.2,355.1z"/>
		<path class="st5" d="M-215.5,517.9v0.2l0,0C-215.5,518.1-215.5,518-215.5,517.9z"/>
		<path class="st5" d="M-148.6,620.2l2.8-21.5l78-78c-3.8-2.8-7.3-6.2-10.2-10c-2.7-3.5-5-7.3-6.7-11.4c-1.1-2.5-2-5.1-2.7-7.8
			l-103.1,21.6l-24,5.3h-1c6,27,18.6,52.6,35.6,74c8.9,11.2,19.2,21,30.5,30h0.4"/>
		<path class="st5" d="M-113.1,512.3c2.9,10.9,11.5,17.4,11.5,17.4v0.1l0,0l-30,23.9l-0.1-0.2c0,0-11.3-9.1-17-25.1h0.1v-0.2
			L-113.1,512.3z"/>
		<line class="st5" x1="-87.1" y1="491.6" x2="-87.4" y2="491.7"/>
		<path class="st5" d="M-190.5,443.7L-190.5,443.7l103.4,21c-1.2,4.4-1.9,9.1-1.9,13.9c0,4.5,0.6,8.9,1.6,13l-103.1,21.2v0.1"/>
		<polygon class="st5" points="-190.5,443.6 -190.5,512.7 -217.5,501.3 -217.5,455 		"/>
		<polyline class="st5" points="-148.8,622.8 -148.8,622.8 -148.5,622.7 -148.5,622.6 -148.3,620.3 		"/>
		<polyline class="st5" points="75.5,622.9 75.5,622.6 75.6,622.4 75.2,620.3 		"/>
		<path class="st5" d="M-36.8,544c-8.3,0-15.1,6.8-15.1,15.1s6.8,15.1,15.1,15.1c8.4,0,15.1-6.8,15.1-15.1
			C-21.7,550.8-28.4,544-36.8,544z"/>
		<circle class="st5" cx="-36.8" cy="559.2" r="13"/>
		<path class="st5" d="M-6.5,537.5c-8.3,0-15.1,6.8-15.1,15.1c0,8.4,6.8,15.1,15.1,15.1c8.4,0,15.1-6.8,15.1-15.1
			S1.8,537.5-6.5,537.5z"/>
		<circle class="st5" cx="-6.5" cy="552.6" r="13"/>
		<path class="st5" d="M-66.5,537.5c-8.3,0-15.1,6.8-15.1,15.1c0,8.4,6.8,15.1,15.1,15.1c8.4,0,15.1-6.8,15.1-15.1
			S-58.2,537.5-66.5,537.5z"/>
		<circle class="st5" cx="-66.5" cy="552.6" r="13"/>
		<path class="st5" d="M-22.5,603.8c0.7-1.8,1.1-3.7,1.1-5.7c0-3.1-0.9-6-2.5-8.4"/>
		<path class="st5" d="M-49.5,590.4c-1.4,2.3-2.2,5-2.2,7.8c0,1.6,0.2,3.2,0.7,4.6"/>
		<circle class="st5" cx="-36.5" cy="598.2" r="13"/>
		<path class="st5" d="M-4.7,586.9c-0.2,2.4,0.1,5,1.1,7.4c0.5,1.2,1.2,2.3,1.9,3.2"/>
		<path class="st5" d="M25.5,588.2c0-1.9-0.4-3.8-1.2-5.7c-1.2-2.9-3.2-5.1-5.6-6.7"/>
		<path class="st5" d="M15.4,600.4c-6.6,2.8-14.2-0.3-17-6.9c-2.8-6.6,0.3-14.2,6.9-17s14.2,0.3,17,6.9
			C25.1,589.9,22,597.6,15.4,600.4z"/>
		<path class="st5" d="M-91.4,575.6C-91.5,575.6-91.5,575.6-91.4,575.6L-91.4,575.6c-2.1,1.6-4.7,4-5.9,6.9
			c-0.8,1.8-1.1,3.7-1.2,5.6"/>
		<path class="st5" d="M-88.7,574.2c-0.2,0.1-0.3,0.1-0.5,0.2c-0.1,0.1-0.2,0.1-0.3,0.2"/>
		<path class="st5" d="M-87.8,573.9c-0.2,0.1-0.3,0.1-0.4,0.2"/>
		<path class="st5" d="M-86.4,573.5c-0.2,0-0.4,0.1-0.6,0.1"/>
		<path class="st5" d="M-71.8,598.1c0.9-1.1,1.7-2.4,2.3-3.8c1.1-2.5,1.4-5.1,1.1-7.6c-0.6-5.2-3.9-10-9.1-12.2
			c-0.7-0.3-1.4-0.6-2.2-0.7c-0.2-0.1-0.5-0.1-0.7-0.2"/>
		<path class="st5" d="M-90.1,574.9c1.4-0.7,2.9-1.2,4.5-1.4c-2.1,0.3-3.9,0.9-5.9,2.1v0.2"/>
		<path class="st5" d="M-71.4,593.5c-2.8,6.6-10.4,9.7-17,6.9s-9.7-10.4-6.9-17c2.8-6.6,10.4-9.7,17-6.9
			C-71.7,579.2-68.6,586.9-71.4,593.5z"/>
		<polyline class="st5" points="-27.5,660.9 -27.5,666.4 -46.5,666.4 -46.5,660.9 		"/>
		<polyline class="st5" points="-4.8,658.6 -4.1,664 -23,666.3 -23.5,661.1 -23.5,660.9 		"/>
		<polyline class="st5" points="17,653.4 18.3,658.6 -0.2,663.2 -1.5,658 		"/>
		<polyline class="st5" points="38,645.6 39.9,650.6 22.1,657.4 20.2,652.4 		"/>
		<polyline class="st5" points="57.8,635.2 60.3,639.9 43.5,648.8 41,644.1 		"/>
		<line class="st5" x1="72.9" y1="624.8" x2="76" y2="622.6"/>
		<polyline class="st5" points="76.2,622.4 79.3,626.8 63.7,637.7 60.7,633.3 		"/>
		<polyline class="st5" points="-68.5,658.9 -68.5,658.8 -69,664 -50.2,666.3 -49.5,661.1 -49.5,660.9 		"/>
		<polyline class="st5" points="-90,653.3 -91.3,658.6 -72.9,663.2 -71.5,658.2 -71.5,657.9 		"/>
		<polyline class="st5" points="-110.9,645.6 -110.9,645.6 -112.9,650.6 -95.2,657.4 -93.3,652.4 -93,652.4 		"/>
		<polyline class="st5" points="-114.5,644.1 -114.5,644.1 -114.5,644.2 -116.8,648.8 -133.4,639.9 -131.1,635.2 		"/>
		<polyline class="st5" points="-133.7,633.3 -136.8,637.7 -152.3,626.8 -149.4,622.6 -149.3,622.4 		"/>
		<path class="st5" d="M-145.8,598.9c0,0,109.4,93.7,218.6,0"/>
		<polygon class="st5" points="-26.5,661.1 -26.5,661.4 -27,661.4 -46,661.4 -46.5,661.4 -46.5,661.2 -46.5,646.4 -26.5,646.4 		"/>
		<polyline class="st5" points="-9,659.4 -8.8,659.4 -23.6,661.1 -24.6,661.1 -26.5,646.1 -26.5,646 -6.1,643.5 -4.3,658.5 		"/>
		<path class="st5" d="M-4.5,658.4v0.2l-0.5,0.1l-3.9,0.5C-7.4,658.9-5.5,658.7-4.5,658.4z"/>
		<polygon class="st5" points="17.5,653.2 17.5,653.3 16.9,653.4 -0.3,657.7 -0.3,657.7 -1.7,658 -2.5,658.2 -2.5,657.9 -5.5,643.5 
			-5.5,643.4 14.1,638.5 		"/>
		<polyline class="st5" points="19.4,652.3 14.1,638.4 14.1,638.4 33.2,631 38.5,644.9 		"/>
		<path class="st5" d="M38.5,644.9l0.1,0.4l-0.7,0.3l-17.7,6.8l-0.7,0.3l-0.1-0.3c0,0,0-0.1,0.1-0.1l0,0c0.8,0,1.6-0.3,2.3-0.6
			l0.2-0.2c4.5-1.5,8.9-3.2,13.2-5.2l0,0C36.3,646.2,37.4,645.4,38.5,644.9z"/>
		<polygon class="st5" points="58.4,634.6 58.5,634.8 57.8,635.2 54.8,636.7 54.6,636.9 43.5,642.7 43.5,642.8 41,644.1 40.3,644.4 
			40.2,644.2 33.2,631 33.2,631 51.3,621.4 		"/>
		<polygon class="st5" points="76.7,621.8 76.8,622 76.2,622.4 76,622.6 73,624.5 72.9,624.4 72.8,624.4 62.9,631.6 62.7,631.8 
			60.4,633.2 59.5,633.8 59.5,633.6 51,621.3 51,621.3 67.9,609.5 75.5,620.3 		"/>
		<polygon class="st5" points="-67.1,643.5 -69,658.6 -68.3,658.7 -49.4,661 -48.6,661.1 -46.5,646.1 -46.5,646 		"/>
		<polygon class="st5" points="-90.7,653.2 -90.8,653.3 -90,653.6 -88.3,654.4 -88.2,654.4 -71.6,658.3 -71.1,658.4 -71.1,658.4 
			-70.9,658.4 -67.5,643.5 -67.5,643.4 -87.3,638.5 		"/>
		<polygon class="st5" points="-111.7,645.3 -111,645.6 -93.2,652.4 -92.5,652.6 -87.1,638.4 -87.1,638.4 -106.2,631 		"/>
		<polyline class="st5" points="-130.9,635.2 -131.5,634.8 -124.3,621.6 -106.2,631.4 -106.3,631.4 -113.4,644.7 -114,644.4 
			-114.1,644.4 -127.9,636.8 -128.2,636.7 		"/>
		<path class="st5" d="M-128.2,636.8l-2.7-1.4l0,0c0.1,0,0.3,0,0.3,0l0,0C-129.7,635.4-129,636.3-128.2,636.8z"/>
		<polygon class="st5" points="-148.7,620.3 -141.1,609.5 -124.3,621.4 -124.4,621.4 -133.1,633.8 -133.4,633.5 -133.4,633.5 
			-133.7,633.3 -134.8,632.6 -134.9,632.5 -148.8,622.8 -149,622.6 -149.3,622.4 -149.9,622 		"/>
		<path class="st5" d="M-22.5,603.9l2,19.5H-53l2.1-20.6c2,6.1,7.7,10.5,14.4,10.5C-30.2,613.4-24.7,609.5-22.5,603.9z"/>
		<path class="st5" d="M-23.9,589.8c-2.7-4.1-7.3-6.8-12.6-6.8c-5.5,0-10.3,2.9-13,7.3l1-10.8l0.4-0.2h23L-23.9,589.8z"/>
		<path class="st5" d="M25.5,588.2l9.4,17L4.8,617.9l-6.2-19.6l0,0l-0.2-0.7c0.2,0.2,0.4,0.5,0.6,0.7s0.4,0.5,0.6,0.7
			c4.2,4.4,10.9,6,16.8,3.4c5.7-2.4,9.2-7.9,9.2-13.7L25.5,588.2L25.5,588.2z"/>
		<path class="st5" d="M18.6,575.8c-4.1-2.7-9.4-3.3-14.2-1.3c-5.3,2.2-8.6,7.1-9.2,12.4l-0.1-0.2l-3.3-10.6l0.4-0.7l21.2-9
			L18.6,575.8z"/>
		<path class="st5" d="M-71.8,598.1l0.2,0.2l-6.2,19.6l-30.1-12.7l9.4-17l0,0l0,0c-0.1,6,3.3,11.7,9.2,14.2
			C-83,605-75.9,603.1-71.8,598.1z"/>
		<path class="st5" d="M-91.4,575.6L-91.4,575.6l5.1-9l21.2,9.1l0.2,0.3l-3.3,10.8c-0.6-5.2-3.9-10-9.1-12.2
			c-0.7-0.3-1.5-0.6-2.2-0.7c-0.2-0.1-0.5-0.1-0.7-0.2c-0.1,0-0.3-0.1-0.4-0.1c-0.2,0-0.4-0.1-0.6-0.1s-0.4,0-0.6,0
			c-0.5,0-1-0.1-1.4-0.1s-0.7,0-1,0l0,0c-0.4,0-0.7,0-1.1,0.1c-0.3,0-0.6,0-0.9,0.2c-0.2,0-0.4,0.1-0.6,0.1
			c-0.3,0.1-0.6,0.2-0.9,0.3c-0.2,0-0.3,0.1-0.4,0.2c-0.1,0-0.3,0.1-0.4,0.2c-0.2,0.1-0.3,0.1-0.5,0.2c-0.1,0-0.2,0.1-0.3,0.2
			c-0.2,0.1-0.4,0.2-0.5,0.2C-90.5,575-91,575.3-91.4,575.6L-91.4,575.6L-91.4,575.6z"/>
		<line class="st5" x1="-14.6" y1="434.1" x2="-14.7" y2="434.3"/>
		<polyline class="st5" points="30,453.2 25.7,447.8 25.7,447.8 22.9,444.2 11.1,429.4 10.5,429.4 10.5,429.3 10.6,429.3 
			10.6,429.3 10.8,429.4 11,429.4 		"/>
		<polyline class="st5" points="93.7,350.8 94,351.2 93.5,351.2 		"/>
		<path class="st5" d="M0.5,441.6L0.5,441.6C0.5,441.5,0.5,441.5,0.5,441.6L0.5,441.6L0.5,441.6L0.5,441.6z"/>
		<path class="st5" d="M11,429.2L11,429.2L11,429.2l-0.1,0.1L0.6,441.4l0,0v0.1l0,0c0-1.6-3.4-3.2-5.2-4.6c-0.2-0.2-0.5-0.4-0.7-0.5
			c-0.2-0.2-0.5-0.3-0.7-0.5c-0.4-0.3-0.8-0.4-1.2-0.7s-0.8-0.7-1.2-0.7c0,0,0,0-0.1,0c-0.2,0-0.5-0.4-0.7-0.5
			c-0.4-0.3-0.9-0.5-1.3-0.8l0,0l0,0c-3.4-2-7-3.5-11-4.7l0,0l0.5-2.1h12.5v-44.3l0.5-1.8c0,0,26,8,42.2,22l-21.3,25l-2.1,1.8
			L11,429.2L11,429.2"/>
		<path class="st5" d="M-8.5,306.6c2,0.2,4,0.5,6,0.9c28.2,4.9,53.7,20.1,53.7,20.1l0,0l-13.8,23.5l-5.3,9c0,0-13.9-9.2-34.7-11.9
			c-1.9-0.3-3.9-0.5-6-0.6L-8.5,306.6L-8.5,306.6z"/>
		<path class="st5" d="M-113.1,512.3C-113.1,512.2-113.1,512.2-113.1,512.3"/>
		<path class="st5" d="M-148.6,528.7c-0.1-0.2-0.1-0.4-0.2-0.5"/>
		<path class="st5" d="M75.6,528.7c-5.8,15.7-17,24.9-17,24.9l-0.1,0.1l-30-23.9l0,0v-0.1c0,0,8.6-6.6,11.5-17.4l35.4,15.9
			L75.6,528.7L75.6,528.7z"/>
		<path class="st5" d="M75.8,528.2c-0.1,0.2-0.1,0.4-0.2,0.5"/>
		<line class="st5" x1="-56.5" y1="433.2" x2="-48.2" y2="448.2"/>
		<polyline class="st5" points="-16.5,433.2 -16.6,433.4 -24.8,448.2 		"/>
	</g>
</g>
</svg>
