<?xml version="1.0" encoding="utf-8"?>
<!-- Generator: Adobe Illustrator 19.1.0, SVG Export Plug-In . SVG Version: 6.00 Build 0)  -->
<svg version="1.1" id="Calque_1" xmlns="http://www.w3.org/2000/svg" xmlns:xlink="http://www.w3.org/1999/xlink" x="0px" y="0px"
	 viewBox="240 20.9 334 224.7" style="enable-background:new 240 20.9 334 224.7;" xml:space="preserve">
<style type="text/css">
	.st0{fill:#5B5B5B;}
	.st1{fill:#020202;}
	.st2{fill:#D3D3D3;}
	.st3{fill:#1D3CD8;}
	.st4{fill:none;stroke:#000000;stroke-miterlimit:10;}
</style>
<image style="display:none;overflow:visible;enable-background:new    ;" width="340" height="270" xlink:href="87FB2C8DC28CCE91.jpeg"  transform="matrix(1.8413 0 0 1.8413 642.9567 109.3606)">
</image>
<g id="XMLID_1_">
	<g>
		<polygon class="st0" points="561,245.6 561,245.4 561,245.4 561,140.9 568.5,140.9 568.9,140.9 567.6,158.5 		"/>
		<polygon class="st0" points="561,245.4 561,245.4 554,160.9 554,155.9 554,140.9 561,140.9 		"/>
		<polygon class="st0" points="253,244.9 253,244.9 253,140.9 259.5,140.9 260,140.9 260,155.9 260,160.9 		"/>
		<polygon class="st0" points="253,244.9 253,244.9 246.4,158.5 246.4,158.3 245,140.9 245.5,140.9 253,140.9 		"/>
		<path class="st1" d="M390.5,189.9h-0.4c-7.5-1.8-14.5-4.9-20.6-8.9l0.1-0.1h4.1l18.3,9H390.5z"/>
		<polygon class="st0" points="394.5,189.9 391.9,189.9 373.6,180.9 383,180.9 394.6,189.7 		"/>
		<polygon class="st1" points="405,189.9 394.9,189.9 394.6,189.7 383,180.9 405,180.9 		"/>
		<rect x="405" y="180.9" class="st0" width="4" height="9"/>
		<polygon class="st1" points="419.1,189.9 409,189.9 409,180.9 431,180.9 419.3,189.7 		"/>
		<polygon class="st0" points="422.1,189.9 419.5,189.9 419.3,189.7 431,180.9 440.4,180.9 		"/>
		<path class="st1" d="M423.4,189.9h-1.3l18.3-9h3.1l0.2,0.2C437.6,185.1,430.9,188.1,423.4,189.9z"/>
		<path class="st2" d="M443.6,181.1l-0.2-0.2h-3H431h-22h-4h-22h-9.4h-4.1l-0.1,0.1c-1-0.6-2-1.3-3-2v-0.1h80h0.4
			C445.8,179.7,444.7,180.4,443.6,181.1z"/>
		<path class="st0" d="M366.5,178.9L366.5,178.9c-5.2-3.7-9.7-8.2-13.3-13.3l0.3-0.2c-0.9-12.6,11.6-19.8,12.9-20.5
			c4.9,17.7,21.1,30.7,40.3,30.7c1.5,0,2.9-0.1,4.3-0.2c17.4-1.8,31.6-14.2,36.1-30.6l0.4,0.1c0,0,13.6,7.1,13,20
			c-0.2,0.2-0.3,0.4-0.5,0.5l0,0c-3,5.1-7.9,9.7-13.1,13.5h-0.4H366.5z"/>
		<path class="st2" d="M366.4,144.9c-1-3.6-1.5-7.3-1.5-11.2c0-3.9,0.5-7.6,1.5-11.2c1.9-6.8,5.5-12.9,10.2-17.9
			c1.5-1.6,3.2-3,5-4.4c5.3-4,11.6-6.7,18.4-7.9v3v0.2c-7.3,1.3-14,4.7-19.3,9.5c-1,1-2.1,2-3,3.1l0,0c-6,6.8-9.6,15.8-9.6,25.6
			c0,19,13.7,34.8,31.8,38.1c1,0.2,2,0.3,3.1,0.4c1.2,0.1,2.5,0.2,3.8,0.2c1.4,0,2.9,0,4.2-0.2c1-0.1,2-0.4,3-0.4l0,0
			c17.9-4,31.4-19.2,31.4-38.1c0-9.7-3.5-18.6-9.4-25.4c-5.6-6.5-13.3-11.1-22-12.8v-0.3v-2.7l0,0c1,0.2,1.9,0.4,2.9,0.6
			c1.1,0.3,2.1,0.6,3.2,0.9c0.2,0.1,0.4,0.1,0.5,0.2c2.6,0.9,5.1,2,7.5,3.4c0.2,0.1,0.3,0.2,0.5,0.3c2.3,1.4,4.5,3,6.5,4.8
			c0.5,0.5,1,0.9,1.4,1.4c1.7,1.7,3.2,3.5,4.5,5.4l0,0c0,0.3,0.2,0.6,0.4,0.8c0,0,0,0,0.1,0.1c0,0.1,0.1,0.1,0.2,0.2l0.1,0.1
			l0.1,0.2l0,0l0,0l0,0l0,0c0,0.2,0.2,0.4,0.4,0.6c0,0,0,0,0,0.1s0,0.1,0,0.2c0.1,0.3,0.2,0.5,0.3,0.8c0.3,0.5,0.7,1,0.9,1.5
			c0,0.1,0.1,0.2,0.1,0.3c0.1,0.2,0.1,0.4,0.1,0.6l0,0c0,0.1,0,0.3,0.1,0.4c0,0.1,0.1,0.2,0.1,0.2c0.1,0.2,0.2,0.3,0.3,0.5
			c0,0.1,0.1,0.2,0.2,0.2c0,0.1,0.1,0.1,0.1,0.2c0.1,0.3,0.3,0.6,0.4,0.8c0.4,0.8,0.7,1.7,1,2.6c0.1,0.3,0.2,0.6,0.3,0.9
			c0.2,0.6,0.4,1.2,0.6,1.9c1,3.5,1.5,7.2,1.5,11.1c0,3.8-0.5,7.5-1.5,11.1c-4.5,16.4-18.7,28.8-36.1,30.6c-1.4,0.1-2.8,0.2-4.3,0.2
			C387.5,175.6,371.3,162.6,366.4,144.9z"/>
		<path class="st1" d="M411,172.2c-1.4,0.1-2.8,0.2-4.2,0.2c-1.3,0-2.5-0.1-3.8-0.2V99.9h7.5h0.5V172.2z"/>
		<path class="st3" d="M411,172.2V99.8h2.5h0.5v3v46v22.5v0.5C413,171.9,412,172.1,411,172.2z"/>
		<path class="st3" d="M400,102.9v-3h2.5h0.5v72.3c-1-0.1-2.1-0.2-3.1-0.4l0.1-0.4v-22.5V102.9z"/>
		<path class="st0" d="M414,171.9L414,171.9l-0.1-0.5l14-11v-11.5h-3v-14h11v-26.5c5.9,6.8,9.4,15.7,9.4,25.4
			C445.4,152.7,431.9,167.9,414,171.9z"/>
		<path class="st0" d="M400,171.4l-0.1,0.4c-18.1-3.2-31.8-19.1-31.8-38.1c0-9.8,3.6-18.7,9.6-25.6l0.3,0.2v26.5h11v14h-3v11.5
			L400,171.4z"/>
		<path class="st2" d="M428,160.4l-14,11v-22.5h7v-46h-7v-3v-4.2c8.7,1.7,16.4,6.3,22,12.8V135h-11v14h3V160.4z M424,130.9h7.5
			l0.2-23.2l-7.7-4.4V130.9z"/>
		<path class="st2" d="M400,99.9v3h-0.5H393v46h6.5h0.5v22.5l-14-11v-11.5h3v-14h-11v-26.5l-0.3-0.2l0,0c0.9-1.1,2-2.1,3-3.1
			c5.3-4.8,11.9-8.2,19.3-9.5V99.9z M382.5,130.9h7.5v-27.7l-7.7,4.4L382.5,130.9z"/>
		<path class="st0" d="M347.6,156.2c-3.2-6.9-4.9-14.4-4.9-22.3c0-8.3,1.9-16.2,5.4-23.4c1.5-3,3.2-5.8,5.2-8.5l0.2,0.1
			c-0.9,12.6,11.6,19.8,12.9,20.4c-1,3.6-1.5,7.3-1.5,11.2c0,3.9,0.5,7.7,1.5,11.2c-1.3,0.7-13.8,7.9-12.9,20.5l-0.3,0.2
			C351,162.6,349.2,159.5,347.6,156.2z"/>
		<path class="st0" d="M460.5,164.8c0.6-12.9-13-20-13-20l-0.4-0.1c1-3.5,1.5-7.2,1.5-11.1c0-3.8-0.5-7.5-1.5-11.1l0.4-0.1
			c0,0,13.7-7.1,13-20c1.8,2.6,3.5,5.3,4.8,8.2c3.4,7.1,5.3,14.9,5.3,23.2c0,7.9-1.9,15.5-5,22.3v0.1
			C464.2,159.3,463.1,162.1,460.5,164.8z"/>
		<polygon class="st0" points="554,160.9 503,152.4 503,146.9 503,146.4 503,120.4 503,119.9 503,114.4 554,105.9 554,111.9 
			553.5,111.9 550.5,111.9 546.7,124.9 530.5,124.9 525,131.4 525,118.9 518,118.9 518,148.9 525,148.9 525,136.4 530.5,142.9 
			546.7,142.9 550.5,155.9 553.5,155.9 554,155.9 		"/>
		<polygon class="st0" points="311,152.4 260,160.9 260,155.9 263.5,155.9 267.2,142.9 283.5,142.9 289,136.4 289,148.9 296,148.9 
			296,118.9 289,118.9 289,131.4 283.5,124.9 267.2,124.9 263.5,111.9 260,111.9 260,105.9 311,114.4 311,119.9 311,146.9 		"/>
		<polygon class="st3" points="568,158.5 567.6,158.5 568.9,140.9 569.5,133.9 568.9,125.8 567.6,109.2 568,109.2 574,117.2 
			574,133.4 574,134.4 574,150.5 		"/>
		<polygon class="st3" points="245,140.9 245,140.9 246.4,158.3 246.4,158.5 246,158.5 240,150.5 240,117.2 246,109.2 246.3,109.2 
			245,125.8 245,125.9 245,125.9 244.4,133.9 		"/>
		<path class="st0" d="M498,119.9v27v3.5l-32.2,5.9l-0.2-0.1c3.2-6.9,5-14.4,5-22.3c0-8.2-1.9-16.1-5.3-23.2l0.5-0.2l32.2,5.9V119.9
			z"/>
		<path class="st0" d="M316,119.9v-3.5l32.2-5.9c-3.5,7.2-5.4,15.1-5.4,23.4c0,7.9,1.7,15.4,4.9,22.3l-31.7-5.8v-3.5V119.9z"/>
		<polygon class="st2" points="260,140.9 260,125.9 260,111.9 263.5,111.9 267.2,124.9 283.5,124.9 289,131.4 289,131.4 
			291.1,133.9 291.1,133.9 289,136.4 283.5,142.9 267.2,142.9 263.5,155.9 260,155.9 		"/>
		<polygon class="st2" points="525,131.4 530.5,124.9 546.7,124.9 550.5,111.9 553.5,111.9 554,111.9 554,125.9 554,140.9 
			554,155.9 553.5,155.9 550.5,155.9 546.7,142.9 530.5,142.9 525,136.4 522.9,133.9 522.9,133.9 		"/>
		<polygon class="st1" points="296,148.9 289,148.9 289,136.4 291.1,133.9 291.1,133.9 289,131.4 289,131.4 289,118.9 296,118.9 		
			"/>
		<polygon class="st1" points="399.5,148.9 393,148.9 393,102.9 399.5,102.9 400,102.9 400,148.9 		"/>
		<rect x="414" y="102.9" class="st1" width="7" height="46"/>
		<polygon class="st1" points="525,148.9 518,148.9 518,118.9 525,118.9 525,131.4 522.9,133.9 522.9,133.9 525,136.4 		"/>
		<polygon class="st1" points="315.5,146.9 311,146.9 311,119.9 315.5,119.9 316,119.9 316,146.9 		"/>
		<polygon class="st1" points="503,146.9 498,146.9 498,119.9 503,119.9 503,120.4 503,146.4 		"/>
		<polygon class="st1" points="561,140.9 554,140.9 554,125.9 561,125.9 568.5,125.9 568.9,125.8 569.5,133.9 568.9,140.9 
			568.5,140.9 		"/>
		<polygon class="st1" points="245,140.9 245,140.9 244.5,133.9 245.1,125.9 245.5,125.9 253,125.9 259.5,125.9 260,125.9 
			260,140.9 259.5,140.9 253,140.9 245.5,140.9 245,140.8 		"/>
		<polygon class="st1" points="390,130.9 382.5,130.9 382.3,107.6 390,103.2 		"/>
		<polygon class="st1" points="431.5,130.9 424,130.9 424,103.2 431.7,107.6 		"/>
		<polygon class="st0" points="253,21.1 253,125.9 245.5,125.9 245,125.9 245,125.8 246.3,109.2 246.3,109 253,20.9 253,20.9 		"/>
		<polygon class="st0" points="259.5,125.9 253,125.9 253,21.1 260,105.9 260,111.9 260,125.9 		"/>
		<polygon class="st0" points="561,125.9 554,125.9 554,111.9 554,105.9 561,21.4 561,21.4 561,125.4 		"/>
		<polygon class="st0" points="568.5,125.9 561,125.9 561,125.4 561,21.4 561,21.4 561,21.1 567.6,109.2 568.9,125.8 		"/>
		<path class="st0" d="M447.5,122.5l-0.4,0.1c-0.2-0.6-0.4-1.2-0.6-1.9c-0.1-0.3-0.2-0.6-0.3-0.9c-0.3-0.9-0.7-1.7-1-2.6
			c-0.1-0.3-0.3-0.6-0.4-0.8c0-0.1-0.1-0.1-0.1-0.2s-0.1-0.2-0.2-0.2c-0.1-0.2-0.2-0.3-0.3-0.5c0-0.1-0.1-0.2-0.1-0.2
			c-0.1-0.1-0.1-0.3-0.1-0.4l0,0c0-0.2,0-0.4-0.1-0.6c0-0.1-0.1-0.2-0.1-0.3c-0.2-0.5-0.6-1-0.9-1.5c-0.2-0.3-0.2-0.5-0.3-0.8
			c0-0.1-0.1-0.1-0.1-0.2v-0.1c-0.1-0.2-0.4-0.4-0.4-0.6l0,0l0,0c0-0.1-0.3-0.3-0.5-0.5c0,0,0,0-0.1-0.1c-0.2-0.3-0.4-0.6-0.4-0.8
			l0,0c-1.3-1.9-2.8-3.7-4.5-5.4c-0.5-0.5-1-0.9-1.4-1.4c-2-1.8-4.2-3.4-6.5-4.8c-0.2-0.1-0.3-0.2-0.5-0.3c-2.4-1.4-4.8-2.5-7.5-3.4
			c-0.2-0.1-0.4-0.1-0.5-0.2c-1-0.4-2.1-0.7-3.2-0.9c-1-0.2-1.9-0.5-2.9-0.6v-0.1V85l-2.3-5.2h-9.3l-2.3,5.2v7.3
			c-6.8,1.1-13.1,3.9-18.4,7.9c-1.8,1.3-3.4,2.8-5,4.4c-4.8,4.9-8.3,11-10.2,17.9c-1.3-0.7-13.8-7.9-12.9-20.4l-0.2-0.1
			c1.7-2.3,3.6-4.6,5.7-6.7c5.1-5.2,11.2-9.5,18-12.8c0.7-0.3,1.3-0.6,2-0.9l0,0c3.5-1.5,7.1-2.8,10.9-3.7c2.3-0.6,4.6-1,7-1.3
			c3.1-0.4,6.3-0.7,9.5-0.7h0.2c3.4,0,7,0.3,10.2,0.7c2.4,0.3,4.7,0.8,7,1.4l0,0c3.8,0.9,7.4,2.2,10.8,3.7c0.7,0.3,1.3,0.6,2,0.9
			c6.8,3.3,12.9,7.7,17.9,12.9c2.1,2.1,4,4.4,5.7,6.8c0,0,0,0.1,0.1,0.1C461.1,115.5,447.5,122.5,447.5,122.5z"/>
		<polygon class="st2" points="402.5,99.9 400,99.9 400,95.5 400,95.4 400,92.4 400,92.4 400,85 402.3,79.9 411.7,79.9 414,85 
			414,92.4 414,92.5 414,92.5 414,95.4 414,95.6 414,99.9 413.5,99.9 411,99.9 410.5,99.9 403,99.9 		"/>
		<path class="st0" d="M455,95.4l-0.2,0.2c-5.1-5.2-11.1-9.6-17.9-12.9l0.2-0.3V24.9h0.2l3.2-2h7l1.5,2.5v17.5l6,3.5V95.4z"/>
		<path class="st0" d="M376.7,24.9h0.2v57.5v0.1c-6.8,3.2-13,7.6-18,12.8V46.4l6-3.5V25.4l1.5-2.5h7L376.7,24.9z"/>
		<path class="st3" d="M437,82.4l-0.2,0.3c-0.7-0.3-1.3-0.6-2-0.9l0.2-0.4V24.9h2V82.4z"/>
		<path class="st3" d="M377,82.5v-0.1V24.9h1.5h0.5v56.5l0.1,0.2l0,0C378.4,81.9,377.7,82.2,377,82.5z"/>
		<path class="st0" d="M435,81.4l-0.2,0.4c-3.5-1.5-7.1-2.8-10.8-3.7V41h-34v37c-3.8,0.9-7.5,2.2-10.9,3.7l-0.1-0.2V25h56V81.4z"/>
		<path class="st2" d="M424,78L424,78c-2.3-0.6-4.7-1.1-7-1.4v-0.2V52.9h-20v23.5v0.2c-2.4,0.3-4.7,0.8-7,1.3v-37h34V78z"/>
		<path class="st1" d="M417,76.4v0.2c-3.2-0.5-6.8-0.7-10.2-0.7h-0.2c-3.2,0-6.4,0.2-9.5,0.7v-0.2V52.9h20L417,76.4L417,76.4z"/>
	</g>
	<g>
		<path class="st4" d="M366.4,178.9c1,0.7,2,1.4,3,2"/>
		<path class="st4" d="M443.6,181.1c1.1-0.7,2.2-1.5,3.2-2.2"/>
		<path class="st4" d="M390,189.9c-7.5-1.8-14.5-4.9-20.6-8.9l0.1-0.1h4.1"/>
		<line class="st4" x1="391.9" y1="189.9" x2="390.5" y2="189.9"/>
		<path class="st4" d="M348.2,110.5c1.5-3,3.2-5.8,5.2-8.5"/>
		<path class="st4" d="M353.2,165.6c-2.2-3-4-6.1-5.5-9.4"/>
		<path class="st4" d="M446.5,178.9h-80v0.1c-5.2-3.8-9.6-8.3-13.3-13.3l0.3-0.2c-0.9-12.6,11.6-19.8,12.9-20.5"/>
		<path class="st4" d="M460.5,164.8c-0.2,0.2-0.3,0.4-0.5,0.5l0,0c-3,5.1-7.9,9.7-13.1,13.5"/>
		<path class="st4" d="M436.5,104.1c-0.5-0.5-1-0.9-1.4-1.4"/>
		<path class="st4" d="M442,110.8c0-0.1-0.3-0.3-0.5-0.5"/>
		<path class="st4" d="M444.6,116c-0.1-0.2-0.2-0.3-0.3-0.5c0-0.1-0.1-0.2-0.1-0.2"/>
		<path class="st4" d="M454.8,95.6c2.1,2.1,4,4.4,5.7,6.8c0,0,0,0.1,0.1,0.1"/>
		<path class="st4" d="M377,82.5c0.7-0.3,1.3-0.6,2-0.9l0,0"/>
		<path class="st4" d="M366.4,122.5c-1.3-0.7-13.8-7.9-12.9-20.4l-0.2-0.1c1.7-2.3,3.6-4.6,5.7-6.7"/>
		<path class="st4" d="M465.6,156.2C465.6,156.2,465.5,156.3,465.6,156.2c-1.4,3.1-2.5,5.9-5.1,8.6c0.6-12.9-13-20-13-20l-0.4-0.1"
			/>
		<path class="st4" d="M447.1,122.6l0.4-0.1c0,0,13.7-7.1,13-20c1.8,2.6,3.5,5.3,4.8,8.2"/>
		<path class="st4" d="M414,92.5c1,0.2,1.9,0.4,2.9,0.6"/>
		<path class="st4" d="M381.6,100.2c5.3-4,11.6-6.8,18.4-7.9V85l2.3-5.2h9.3l2.3,5.2v7.3"/>
		<path class="st4" d="M440.4,180.9h3.1l0.2,0.2c-6.1,4-12.8,7-20.2,8.8h-1.3"/>
		<path class="st4" d="M443.7,114c-0.2-0.5-0.6-1-0.9-1.5c-0.2-0.3-0.2-0.5-0.3-0.8c0-0.1-0.1-0.1-0.1-0.2"/>
		<line class="st4" x1="400" y1="92.4" x2="400" y2="92.4"/>
		<polyline class="st4" points="414,92.4 414,92.5 414,92.5 		"/>
		<path class="st4" d="M414,95.6v-0.3v-2.8l0,0c1,0.2,1.9,0.4,2.9,0.6c1.1,0.3,2.1,0.6,3.2,0.9c0.2,0.1,0.4,0.1,0.5,0.2
			c2.6,0.9,5.1,2,7.5,3.4c0.2,0.1,0.3,0.2,0.5,0.3c2.3,1.4,4.5,3,6.5,4.8c0.5,0.5,1,0.9,1.4,1.4c1.7,1.7,3.2,3.5,4.5,5.4l0,0
			c0,0.3,0.2,0.6,0.4,0.8c0,0,0,0,0.1,0.1c0,0.1,0.1,0.1,0.2,0.2l0.1,0.1l0.1,0.2l0,0l0,0l0,0l0,0c0,0.2,0.2,0.4,0.4,0.6
			c0,0,0,0,0,0.1s0,0.1,0,0.2c0.1,0.3,0.2,0.5,0.3,0.8c0.3,0.5,0.7,1,0.9,1.5c0,0.1,0.1,0.2,0.1,0.3c0.1,0.2,0.1,0.4,0.1,0.6l0,0
			c0,0.1,0,0.3,0.1,0.4c0,0.1,0.1,0.2,0.1,0.2c0.1,0.2,0.2,0.3,0.3,0.5c0,0.1,0.1,0.2,0.2,0.2c0,0.1,0.1,0.1,0.1,0.2
			c0.1,0.3,0.3,0.6,0.4,0.8c0.4,0.8,0.7,1.7,1,2.6c0.1,0.3,0.2,0.6,0.3,0.9c0.2,0.6,0.4,1.2,0.6,1.9c1,3.5,1.5,7.2,1.5,11.1
			c0,3.8-0.5,7.5-1.5,11.1c-4.5,16.4-18.7,28.8-36.1,30.6c-1.4,0.1-2.8,0.2-4.3,0.2c-19.2,0-35.5-13-40.3-30.7
			c-1-3.6-1.5-7.3-1.5-11.2c0-3.9,0.5-7.6,1.5-11.2c1.9-6.8,5.5-12.9,10.2-17.9c1.5-1.6,3.2-3,5-4.4c5.3-4,11.6-6.7,18.4-7.9v3v0.2"
			/>
		<path class="st4" d="M411,172.2c1-0.1,2-0.4,3-0.4"/>
		<path class="st4" d="M399.9,171.8c1,0.2,2,0.3,3.1,0.4"/>
		<path class="st4" d="M400,171.4l-0.1,0.4c-18.1-3.2-31.8-19.1-31.8-38.1c0-9.8,3.6-18.7,9.6-25.6"/>
		<path class="st4" d="M400,102.9v-3v-4.4c-7.3,1.3-14,4.7-19.3,9.5c-1,1-2.1,2-3,3.1l0,0l0.3,0.2v26.5h11v14h-3v11.5l14,11v-22.5"
			/>
		<path class="st4" d="M411,99.9v72.4c-1.4,0.1-2.8,0.2-4.2,0.2c-1.3,0-2.5-0.1-3.8-0.2V100h7.5"/>
		<path class="st4" d="M436,108.4c5.9,6.8,9.4,15.7,9.4,25.4c0,18.9-13.5,34.1-31.4,38.1l0,0v-0.5"/>
		<path class="st4" d="M414,148.9v22.5l14-11v-11.5h-3v-14h11v-26.5c-5.6-6.5-13.3-11.1-22-12.8v4.2v3"/>
		<polyline class="st4" points="446.5,178.9 446.9,178.9 447.5,178.9 		"/>
		<polyline class="st4" points="388.5,189.9 390,189.9 390.5,189.9 		"/>
		<line class="st4" x1="383" y1="180.9" x2="405" y2="180.9"/>
		<polyline class="st4" points="405,189.9 394.9,189.9 394.6,189.7 		"/>
		<line class="st4" x1="409" y1="180.9" x2="431" y2="180.9"/>
		<polyline class="st4" points="419.3,189.7 419.1,189.9 409,189.9 		"/>
		<rect x="405" y="180.9" class="st4" width="4" height="9"/>
		<polygon class="st4" points="422.1,189.9 419.5,189.9 419.3,189.7 431,180.9 440.4,180.9 		"/>
		<polygon class="st4" points="394.6,189.7 394.5,189.9 391.9,189.9 373.6,180.9 383,180.9 		"/>
		<line class="st4" x1="423.5" y1="189.9" x2="424.5" y2="189.9"/>
		<polyline class="st4" points="399.5,99.9 400,99.9 402.5,99.9 		"/>
		<polyline class="st4" points="410.5,99.9 411,99.9 413.5,99.9 		"/>
		<polygon class="st4" points="431.7,107.6 431.5,130.9 424,130.9 424,103.2 		"/>
		<polygon class="st4" points="390,103.2 390,130.9 382.5,130.9 382.3,107.6 		"/>
		<rect x="414" y="102.9" class="st4" width="7" height="46"/>
		<line class="st4" x1="400" y1="102.9" x2="400" y2="148.9"/>
		<polyline class="st4" points="399.5,148.9 393,148.9 393,102.9 399.5,102.9 		"/>
		<polyline class="st4" points="399.5,148.9 400,148.9 400.5,148.9 		"/>
		<polyline class="st4" points="399.5,102.9 400,102.9 400.5,102.9 		"/>
		<path class="st4" d="M498,146.9v3.5l-32.2,5.9l-0.2-0.1c3.2-6.9,5-14.4,5-22.3c0-8.2-1.9-16.1-5.3-23.2l0.5-0.2l32.2,5.9v3.5
			V146.9z"/>
		<polyline class="st4" points="503,119.9 498,119.9 497.5,119.9 		"/>
		<line class="st4" x1="503" y1="146.4" x2="503" y2="120.4"/>
		<polyline class="st4" points="497.5,146.9 498,146.9 503,146.9 		"/>
		<polyline class="st4" points="503,120.4 503,119.9 503,114.4 554,105.9 554,111.9 554,125.9 554,140.9 554,155.9 554,160.9 
			503,152.4 503,146.9 503,146.4 		"/>
		<polyline class="st4" points="554,105.9 561,21.4 561,21.1 567.6,109.2 568.9,125.8 569.5,133.9 568.9,140.9 567.6,158.5 
			561,245.6 561,245.4 554,160.9 		"/>
		<polyline class="st4" points="568.5,125.9 561,125.9 554,125.9 553.5,125.9 		"/>
		<polyline class="st4" points="568.5,140.9 561,140.9 554,140.9 553.5,140.9 		"/>
		<polyline class="st4" points="568,158.5 574,150.5 574,134.4 574,133.4 574,117.2 568,109.2 		"/>
		<line class="st4" x1="561" y1="21.4" x2="561" y2="125.4"/>
		<polyline class="st4" points="561,245.4 561,140.9 561,140.4 		"/>
		<polyline class="st4" points="553.5,155.9 550.5,155.9 546.7,142.9 530.5,142.9 525,136.4 522.9,133.9 		"/>
		<polyline class="st4" points="553.5,111.9 550.5,111.9 546.7,124.9 530.5,124.9 525,131.4 522.9,133.9 		"/>
		<line class="st4" x1="348.2" y1="156.3" x2="347.6" y2="156.2"/>
		<path class="st4" d="M316,119.9v-3.5l32.2-5.9c-3.5,7.2-5.4,15.1-5.4,23.4c0,7.9,1.7,15.4,4.9,22.3l-31.7-5.8v-3.5"/>
		<line class="st4" x1="316" y1="119.9" x2="316" y2="146.9"/>
		<line class="st4" x1="311" y1="119.9" x2="315.5" y2="119.9"/>
		<line class="st4" x1="315.5" y1="146.9" x2="311" y2="146.9"/>
		<polyline class="st4" points="315.5,119.9 316,119.9 316.5,119.9 		"/>
		<polyline class="st4" points="315.5,146.9 316,146.9 316.5,146.9 		"/>
		<polyline class="st4" points="260,105.9 311,114.4 311,119.9 311,146.9 311,152.4 260,160.9 		"/>
		<polyline class="st4" points="245,140.9 245,140.8 245.5,140.9 		"/>
		<polyline class="st4" points="253,244.9 253,244.9 246.4,158.5 		"/>
		<polyline class="st4" points="260,155.9 260,160.9 253,244.9 253,244.9 253,140.9 		"/>
		<polyline class="st4" points="253,245.4 253,245.6 253,244.9 		"/>
		<polyline class="st4" points="246.3,109.2 246.3,109 253,20.9 253,20.9 253,21.1 		"/>
		<line class="st4" x1="245.5" y1="125.9" x2="245.1" y2="125.9"/>
		<polyline class="st4" points="253,125.9 253,21.1 260,105.9 260,111.9 		"/>
		<line class="st4" x1="253" y1="21.4" x2="253" y2="21.1"/>
		<polyline class="st4" points="245,140.9 245,140.9 245,140.8 		"/>
		<polyline class="st4" points="245,125.9 245.5,125.9 253,125.9 259.5,125.9 		"/>
		<polyline class="st4" points="245,140.9 244.4,133.9 245,125.9 		"/>
		<polyline class="st4" points="259.5,140.9 253,140.9 245.5,140.9 245,140.9 		"/>
		<polyline class="st4" points="259.5,125.9 260,125.9 260.5,125.9 		"/>
		<polyline class="st4" points="259.5,140.9 260,140.9 260.5,140.9 		"/>
		<polygon class="st4" points="246.4,158.5 246,158.5 240,150.5 240,117.2 246,109.2 246.3,109.2 245,125.8 245,125.9 245,125.9 
			245.1,125.9 244.5,133.9 245,140.9 245,140.9 245,140.9 246.4,158.3 		"/>
		<line class="st4" x1="289" y1="136.4" x2="291.1" y2="133.9"/>
		<line class="st4" x1="291.1" y1="133.9" x2="289" y2="131.4"/>
		<path class="st4" d="M460.5,165.4c0-0.2,0-0.3,0-0.5"/>
		<path class="st4" d="M460.5,102.5c0-0.2,0-0.3,0-0.5"/>
		<path class="st4" d="M366.4,144.9C366.5,144.9,366.5,144.9,366.4,144.9"/>
		<path class="st4" d="M366.5,122.5L366.5,122.5"/>
		<path class="st4" d="M434.8,81.8c-3.5-1.5-7.1-2.8-10.8-3.7"/>
		<path class="st4" d="M390,77.9c-3.8,0.9-7.5,2.2-10.9,3.7l-0.1-0.2V24.9h56"/>
		<path class="st4" d="M436.8,82.7c-0.7-0.3-1.3-0.6-2-0.9l0.2-0.4V24.9h2"/>
		<path class="st4" d="M454.8,95.6c-5.1-5.2-11.1-9.6-17.9-12.9l0.2-0.3V24.9h0.2l3.2-2h7l1.5,2.5v17.5l6,3.5v49L454.8,95.6z"/>
		<path class="st4" d="M377,24.9v57.5v0.1c-6.8,3.2-13,7.6-18,12.8V46.4l6-3.5V25.4l1.5-2.5h7l3.2,2"/>
		<polyline class="st4" points="376.5,24.9 376.7,24.9 377,24.9 378.5,24.9 		"/>
		<path class="st4" d="M417,76.6c-3.2-0.5-6.8-0.7-10.2-0.7h-0.2c-3.2,0-6.4,0.2-9.5,0.7"/>
		<path class="st4" d="M417,76.6v-0.2V52.9h-20v23.5v0.2c-2.4,0.3-4.7,0.8-7,1.3v-37h34V78l0,0C421.7,77.4,419.3,77,417,76.6z"/>
		<polyline class="st4" points="289,131.4 283.5,124.9 267.2,124.9 263.5,111.9 260,111.9 260,125.9 260,140.9 260,155.9 
			263.5,155.9 267.2,142.9 283.5,142.9 289,136.4 		"/>
		<polyline class="st4" points="289,136.4 289,148.9 296,148.9 296,118.9 289,118.9 289,131.4 289,131.4 		"/>
		<polyline class="st4" points="525,136.4 525,148.9 518,148.9 518,118.9 525,118.9 525,131.4 525,131.4 		"/>
	</g>
</g>
</svg>
