<?xml version="1.0" encoding="utf-8"?>
<!-- Generator: Adobe Illustrator 19.1.0, SVG Export Plug-In . SVG Version: 6.00 Build 0)  -->
<svg version="1.1" id="Calque_1" xmlns="http://www.w3.org/2000/svg" xmlns:xlink="http://www.w3.org/1999/xlink" x="0px" y="0px"
	 viewBox="1111.2 78.3 54.5 126.5" style="enable-background:new 1111.2 78.3 54.5 126.5;" xml:space="preserve">
<style type="text/css">
	.st0{fill:url(#SVGID_1_);}
	.st1{fill:url(#SVGID_2_);}
</style>
<radialGradient id="SVGID_1_" cx="1396.6332" cy="-2696.1379" r="89.7832" gradientTransform="matrix(4.503515e-11 1 0.1931 -8.697356e-12 1677.3004 -1255.1232)" gradientUnits="userSpaceOnUse">
	<stop  offset="0" style="stop-color:#FFFFFF"/>
	<stop  offset="1" style="stop-color:#00AF10"/>
</radialGradient>
<path class="st0" d="M1156.7,204.8L1156.7,204.8c-5,0-9-4.1-9-9V87.3c0-4.9,4-9,9-9l0,0c5,0,9,4,9,9v108.5
	C1165.7,200.8,1161.6,204.8,1156.7,204.8z"/>
<radialGradient id="SVGID_2_" cx="1360.1332" cy="-2696.1379" r="89.7832" gradientTransform="matrix(4.503515e-11 1 0.1931 -8.697356e-12 1640.8004 -1218.6232)" gradientUnits="userSpaceOnUse">
	<stop  offset="0" style="stop-color:#FFFFFF"/>
	<stop  offset="1" style="stop-color:#00AF10"/>
</radialGradient>
<path class="st1" d="M1120.2,204.8L1120.2,204.8c-5,0-9-4.1-9-9V87.3c0-4.9,4-9,9-9l0,0c5,0,9,4,9,9v108.5
	C1129.2,200.8,1125.1,204.8,1120.2,204.8z"/>
</svg>
