<?xml version="1.0" encoding="utf-8"?>
<!-- Generator: Adobe Illustrator 19.1.0, SVG Export Plug-In . SVG Version: 6.00 Build 0)  -->
<svg version="1.1" id="Calque_1" xmlns="http://www.w3.org/2000/svg" xmlns:xlink="http://www.w3.org/1999/xlink" x="0px" y="0px"
	 viewBox="0 0 302.9 280.4" style="enable-background:new 0 0 302.9 280.4;" xml:space="preserve">
<style type="text/css">
	.st0{fill:#020202;}
	.st1{fill:none;stroke:#000000;stroke-miterlimit:10;}
	.st2{fill:#5B5B5B;}
	.st3{fill:#D3D3D3;}
	.st4{fill:#1D3CD8;}
</style>
<g>
	<g id="XMLID_5_">
		<g>
			<polygon class="st0" points="69.4,205.1 65.7,203.2 65.7,182.6 69.4,180.7 			"/>
		</g>
		<g>
			<polygon class="st1" points="69.4,205.1 65.7,203.2 65.7,182.6 69.4,180.7 			"/>
		</g>
	</g>
</g>
<g>
	<g id="XMLID_3_">
		<g>
			<polygon class="st0" points="233.5,205.1 237.2,203.2 237.2,182.6 233.5,180.7 			"/>
		</g>
		<g>
			<polygon class="st1" points="233.5,205.1 237.2,203.2 237.2,182.6 233.5,180.7 			"/>
		</g>
	</g>
</g>
<g id="XMLID_1_">
	<g>
		<path class="st0" d="M136.5,244.1h-0.4c-6.8-1.7-13.1-4.4-18.7-8.1l0.1-0.1h3.7l16.5,8.2H136.5z"/>
		<polygon class="st2" points="140.1,244.1 137.8,244.1 121.2,235.9 129.7,235.9 140.3,243.9 		"/>
		<polygon class="st0" points="149.6,244.1 140.5,244.1 140.3,243.9 129.7,235.9 149.6,235.9 		"/>
		<rect x="149.6" y="235.9" class="st2" width="3.6" height="8.2"/>
		<polygon class="st0" points="162.4,244.1 153.3,244.1 153.3,235.9 173.2,235.9 162.7,243.9 		"/>
		<polygon class="st2" points="165.2,244.1 162.8,244.1 162.7,243.9 173.2,235.9 181.7,235.9 		"/>
		<path class="st0" d="M166.4,244.1h-1.2l16.5-8.2h2.8l0.1,0.2C179.2,239.7,173.1,242.5,166.4,244.1z"/>
		<path class="st3" d="M184.7,236.2l-0.1-0.2h-2.8h-8.5h-19.9h-3.6h-19.9h-8.5h-3.7l-0.1,0.1c-0.9-0.6-1.8-1.2-2.7-1.9l0-0.1h72.5
			h0.3C186.6,234.8,185.7,235.5,184.7,236.2z"/>
		<path class="st2" d="M114.8,234.1L114.8,234.1c-4.7-3.4-8.8-7.4-12.1-12l0.3-0.2c-0.9-11.4,10.5-17.9,11.7-18.5
			c4.4,16,19.1,27.8,36.6,27.8c1.3,0,2.6-0.1,3.9-0.2c15.8-1.6,28.7-12.8,32.7-27.7l0.3,0.1c0,0,12.3,6.4,11.8,18.1
			c-0.2,0.2-0.3,0.3-0.5,0.5v0c-2.7,4.6-7.2,8.8-11.9,12.2h-0.3H114.8z"/>
		<path class="st3" d="M114.7,203.4c-0.9-3.2-1.4-6.6-1.4-10.2c0-3.5,0.5-6.9,1.4-10.2c1.7-6.2,4.9-11.7,9.3-16.2
			c1.4-1.4,2.9-2.8,4.5-4c4.8-3.6,10.5-6.1,16.7-7.1v2.7v0.2c-6.7,1.2-12.7,4.3-17.5,8.6c-1,0.9-1.9,1.8-2.7,2.8c0,0,0,0,0,0
			c-5.4,6.2-8.7,14.3-8.7,23.2c0,17.2,12.4,31.6,28.8,34.5c0.9,0.2,1.9,0.3,2.8,0.4c1.1,0.1,2.2,0.2,3.4,0.2c1.3,0,2.6,0,3.9-0.2
			c0.9-0.1,1.8-0.3,2.7-0.3h0c16.2-3.6,28.4-17.4,28.4-34.5c0-5.5-1.3-10.8-3.5-15.4l2.4-1.2c0,0,0,0.1,0.1,0.1
			c0.1,0.2,0.2,0.3,0.3,0.5c0,0.1,0.1,0.2,0.1,0.2c0,0.1,0.1,0.1,0.1,0.2c0.1,0.3,0.3,0.5,0.4,0.8c0.3,0.8,0.6,1.5,0.9,2.3
			c0.1,0.3,0.2,0.5,0.3,0.8c0.2,0.6,0.4,1.1,0.5,1.7c0.9,3.2,1.3,6.6,1.3,10c0,3.5-0.5,6.8-1.3,10c-4.1,14.9-17,26.1-32.7,27.7
			c-1.3,0.1-2.6,0.2-3.9,0.2C133.8,231.1,119.1,219.4,114.7,203.4z"/>
		<path class="st0" d="M155.1,228.1c-1.3,0.1-2.5,0.2-3.9,0.2c-1.2,0-2.3-0.1-3.4-0.2v-65.5h6.8h0.5V228.1z"/>
		<path class="st4" d="M155.1,228.1v-65.6h2.3h0.5v2.7v41.7v20.4l0,0.5C156.9,227.8,156,228,155.1,228.1z"/>
		<path class="st4" d="M145.1,165.3v-2.7h2.3h0.5v65.5c-1-0.1-1.9-0.2-2.8-0.4l0.1-0.4v-20.4V165.3z"/>
		<path class="st2" d="M157.9,227.8L157.9,227.8l-0.1-0.5l12.7-10v-10.4h-2.7v-12.7h10v-24c2,2.3,3.7,4.8,5,7.6
			c2.3,4.7,3.5,9.9,3.5,15.4C186.3,210.4,174,224.2,157.9,227.8z"/>
		<path class="st2" d="M145.1,227.3l-0.1,0.4c-16.4-2.9-28.8-17.3-28.8-34.5c0-8.9,3.3-17,8.7-23.2l0.2,0.2v24h10v12.7h-2.7v10.4
			L145.1,227.3z"/>
		<path class="st3" d="M170.5,217.4l-12.7,10v-20.4h6.3v-41.4h2.7v25.1h6.8l0.2-21.1l-0.4-0.2l1.2-2.2c1.1,1,2.1,2,3,3.1v24h-10
			v12.7h2.7V217.4z"/>
		<path class="st3" d="M145.1,162.5v2.7h-0.5h-5.9v41.7h5.9h0.5v20.4l-12.7-10v-10.4h2.7v-12.7h-10v-24l-0.2-0.2c0,0,0,0,0,0
			c0.9-1,1.8-1.9,2.7-2.8c4.8-4.3,10.8-7.4,17.5-8.6V162.5z M129.3,190.6h6.8v-25.1l-7,4L129.3,190.6z"/>
		<path class="st2" d="M97.7,213.6c-2.9-6.2-4.4-13-4.4-20.2c0-7.5,1.8-14.7,4.9-21.2c1.3-2.7,2.9-5.3,4.7-7.7l0.1,0.1
			c-0.9,11.4,10.5,17.9,11.7,18.5c-0.9,3.2-1.4,6.6-1.4,10.2c0,3.5,0.5,6.9,1.4,10.2c-1.1,0.6-12.5,7.1-11.7,18.5l-0.3,0.2
			C100.7,219.4,99.1,216.6,97.7,213.6z"/>
		<path class="st2" d="M200,221.4c0.5-11.7-11.8-18.1-11.8-18.1l-0.3-0.1c0.9-3.2,1.3-6.6,1.3-10c0-3.5-0.5-6.8-1.3-10l0.3-0.1
			c0,0,12.4-6.4,11.8-18.2c1.7,2.3,3.1,4.8,4.4,7.4c3.1,6.4,4.8,13.5,4.8,21c0,7.2-1.7,14-4.6,20.2c0,0,0,0.1,0,0.1
			C203.3,216.4,202.3,219,200,221.4z"/>
		<path class="st2" d="M233.9,208.3l-29.2,5.4l-0.2-0.1c2.9-6.2,4.6-13,4.6-20.2c0-7.5-1.7-14.6-4.8-21l0.4-0.2l29.2,5.4V208.3z"/>
		<path class="st2" d="M69,180.7v-3.2l29.2-5.4c-3.2,6.5-4.9,13.7-4.9,21.2c0,7.2,1.6,14,4.4,20.2L69,208.3v-3.2V180.7z"/>
		<polygon class="st0" points="144.7,206.9 138.8,206.9 138.8,165.3 144.7,165.3 145.1,165.3 145.1,206.9 		"/>
		<polygon class="st0" points="164.1,206.9 157.8,206.9 157.8,165.3 164.1,165.3 164.1,165.6 		"/>
		<polygon class="st0" points="136,190.6 129.3,190.6 129.1,169.6 136,165.6 		"/>
		<polygon class="st0" points="173.7,190.6 166.9,190.6 166.9,165.6 173.4,169.3 173.8,169.6 		"/>
		<path class="st2" d="M188.2,183.1l-0.3,0.1c-0.2-0.6-0.3-1.1-0.5-1.7c-0.1-0.3-0.2-0.5-0.3-0.8c-0.3-0.8-0.6-1.6-0.9-2.3
			c-0.1-0.3-0.3-0.5-0.4-0.8c0-0.1-0.1-0.1-0.1-0.2c0-0.1-0.1-0.2-0.1-0.2c-0.1-0.2-0.2-0.3-0.3-0.5c0-0.1-0.1-0.2-0.1-0.2
			c-0.1-0.1-0.1-0.2-0.1-0.4c0,0,0,0,0,0c0-0.2,0-0.4-0.1-0.5c0-0.1-0.1-0.2-0.1-0.3c-0.2-0.4-0.6-0.9-0.8-1.3
			c-0.1-0.2-0.2-0.5-0.3-0.7c0-0.1-0.1-0.1-0.1-0.2c0,0,0,0,0-0.1c-0.1-0.2-0.3-0.3-0.3-0.5v0c0,0,0,0,0,0c0-0.1-0.3-0.3-0.5-0.4
			c0,0,0,0-0.1-0.1c-0.2-0.2-0.4-0.5-0.4-0.8c0,0,0,0,0,0c-1.2-1.7-2.5-3.4-4.1-4.9c-0.4-0.4-0.9-0.9-1.3-1.3
			c-1.8-1.6-3.8-3.1-5.9-4.4c-0.1-0.1-0.3-0.2-0.4-0.3c-2.1-1.2-4.4-2.3-6.8-3.1c-0.2-0.1-0.3-0.1-0.5-0.2c-0.9-0.3-1.9-0.6-2.9-0.8
			c-0.9-0.2-1.7-0.4-2.6-0.6v-0.1v-6.6l-2.1-4.7h-8.5l-2.1,4.7v6.6c-6.2,1-11.9,3.5-16.7,7.1c-1.6,1.2-3.1,2.5-4.5,4
			c-4.3,4.5-7.5,10-9.3,16.2c-1.1-0.6-12.5-7.1-11.7-18.5l-0.1-0.1c1.5-2.1,3.3-4.2,5.1-6c4.6-4.7,10.2-8.6,16.4-11.6
			c0.6-0.3,1.2-0.6,1.8-0.8l0,0c3.1-1.4,6.5-2.5,9.9-3.3c2.1-0.5,4.2-0.9,6.4-1.2c2.8-0.4,5.7-0.6,8.6-0.6h0.2
			c3.1,0,6.3,0.2,9.3,0.7c2.2,0.3,4.3,0.7,6.3,1.3c0,0,0,0,0,0c3.4,0.9,6.7,2,9.8,3.4c0.6,0.3,1.2,0.6,1.8,0.9
			c6.2,3,11.7,7,16.2,11.7c1.9,1.9,3.6,4,5.2,6.2c0,0,0,0.1,0.1,0.1C200.5,176.7,188.2,183.1,188.2,183.1z"/>
		<path class="st3" d="M185.1,176.6l-2.4,1.2c-1.3-2.7-3-5.3-5-7.6c-1-1.1-2-2.1-3-3.1c-4.7-4.2-10.5-7.2-16.9-8.5v-0.2v-2.6
			c0,0,0,0,0,0c0.9,0.2,1.7,0.3,2.6,0.5c1,0.2,1.9,0.5,2.9,0.8c0.2,0,0.3,0.1,0.5,0.2c2.4,0.8,4.6,1.8,6.8,3.1
			c0.1,0.1,0.3,0.2,0.4,0.3c2.1,1.3,4.1,2.7,5.9,4.4c0.4,0.4,0.9,0.8,1.3,1.3c1.5,1.5,2.9,3.1,4.1,4.9c0,0,0,0,0,0
			c0,0.2,0.2,0.5,0.4,0.8c0,0,0,0,0.1,0.1c0,0.1,0.1,0.1,0.2,0.2c0,0,0.1,0.1,0.1,0.1c0,0,0.1,0.1,0.1,0.1h0c0,0,0,0,0,0
			c0,0,0,0,0,0v0c0,0.2,0.2,0.3,0.3,0.5c0,0,0,0,0,0.1c0,0.1,0,0.1,0,0.2c0.1,0.2,0.2,0.5,0.3,0.7c0.3,0.4,0.6,0.9,0.9,1.3
			c0,0.1,0.1,0.2,0.1,0.3c0.1,0.2,0.1,0.4,0.1,0.5c0,0,0,0,0,0c0,0.1,0,0.2,0.1,0.4C185.1,176.5,185.1,176.6,185.1,176.6z"/>
		<path class="st3" d="M173.4,169.3l-6.6-3.8h-2.7v-0.3h-6.3v-2.7v-3.8c6.4,1.2,12.2,4.2,16.9,8.5L173.4,169.3z"/>
		<polygon class="st3" points="147.4,162.5 145.1,162.5 145.1,158.6 145.1,158.5 145.1,155.8 145.1,155.7 145.1,149.1 147.2,144.4 
			155.7,144.4 157.8,149.1 157.8,155.7 157.8,155.8 157.8,155.8 157.8,158.5 157.8,158.7 157.8,162.5 157.3,162.5 155.1,162.5 
			154.6,162.5 147.8,162.5 		"/>
		<path class="st2" d="M195,158.5l-0.2,0.2c-4.6-4.7-10.1-8.7-16.2-11.7l0.1-0.3V94.6h0.2l2.9-1.8h6.3l1.4,2.3v15.9l5.4,3.2V158.5z"
			/>
		<path class="st2" d="M124,94.6h0.2v52.1l0,0.1c-6.2,2.9-11.7,6.9-16.4,11.6v-44.3l5.4-3.2V95l1.4-2.3h6.3L124,94.6z"/>
		<path class="st4" d="M178.6,146.7l-0.1,0.3c-0.6-0.3-1.2-0.6-1.8-0.9l0.2-0.3V94.6h1.8V146.7z"/>
		<path class="st4" d="M124.3,146.8l0-0.1V94.6h1.4h0.5v51.2l0.1,0.2l0,0C125.5,146.2,124.9,146.5,124.3,146.8z"/>
		<path class="st2" d="M176.8,145.8l-0.2,0.3c-3.1-1.4-6.4-2.5-9.8-3.4v-33.7H136v33.5c-3.4,0.8-6.8,2-9.9,3.3l-0.1-0.2V94.6h50.7
			V145.8z"/>
		<path class="st3" d="M166.9,142.7C166.8,142.7,166.8,142.7,166.9,142.7c-2.1-0.5-4.2-1-6.4-1.3l0-0.2v-21.3h-18.1v21.3l0,0.2
			c-2.2,0.3-4.3,0.7-6.4,1.2v-33.5h30.8V142.7z"/>
		<path class="st0" d="M160.5,141.2l0,0.2c-2.9-0.4-6.2-0.7-9.3-0.7H151c-2.9,0-5.8,0.2-8.6,0.6l0-0.2v-21.3h18.1V141.2z"/>
	</g>
	<g>
		<path class="st1" d="M114.7,234.2c0.9,0.7,1.8,1.3,2.7,1.9"/>
		<path class="st1" d="M184.7,236.2c1-0.6,2-1.3,2.9-2"/>
		<path class="st1" d="M136.1,244.1c-6.8-1.7-13.1-4.4-18.7-8.1l0.1-0.1h3.7"/>
		<line class="st1" x1="137.8" y1="244.1" x2="136.5" y2="244.1"/>
		<path class="st1" d="M98.1,172.1c1.3-2.7,2.9-5.3,4.7-7.7"/>
		<path class="st1" d="M102.7,222.1c-1.9-2.7-3.6-5.5-5-8.5"/>
		<path class="st1" d="M187.2,234.1h-72.5l0,0.1c-4.7-3.4-8.7-7.5-12-12.1l0.3-0.2c-0.9-11.4,10.5-17.9,11.7-18.5"/>
		<path class="st1" d="M200,221.4c-0.2,0.2-0.3,0.3-0.5,0.5v0c-2.7,4.6-7.2,8.8-11.9,12.2"/>
		<path class="st1" d="M178.2,166.3c-0.4-0.4-0.9-0.9-1.3-1.3"/>
		<path class="st1" d="M183.2,172.5c0-0.1-0.3-0.3-0.5-0.4"/>
		<path class="st1" d="M185.5,177.2c-0.1-0.2-0.2-0.3-0.3-0.5c0-0.1-0.1-0.2-0.1-0.2"/>
		<path class="st1" d="M194.7,158.7c1.9,1.9,3.6,4,5.2,6.2c0,0,0,0.1,0.1,0.1"/>
		<path class="st1" d="M124.3,146.8c0.6-0.3,1.2-0.6,1.8-0.8l0,0"/>
		<path class="st1" d="M114.7,183c-1.1-0.6-12.5-7.1-11.7-18.5l-0.1-0.1c1.5-2.1,3.3-4.2,5.1-6"/>
		<path class="st1" d="M204.5,213.6C204.5,213.6,204.5,213.6,204.5,213.6c-1.3,2.8-2.2,5.4-4.6,7.8c0.5-11.7-11.8-18.1-11.8-18.1
			l-0.3-0.1"/>
		<path class="st1" d="M187.8,183.2l0.3-0.1c0,0,12.4-6.4,11.8-18.2c1.7,2.3,3.1,4.8,4.4,7.4"/>
		<path class="st1" d="M157.8,155.8c0.9,0.2,1.8,0.3,2.6,0.6"/>
		<path class="st1" d="M128.4,162.9c4.8-3.6,10.5-6.1,16.7-7.1v-6.6l2.1-4.7h8.5l2.1,4.7v6.6"/>
		<path class="st1" d="M181.7,235.9h2.8l0.1,0.2c-5.5,3.6-11.6,6.3-18.3,7.9h-1.2"/>
		<path class="st1" d="M184.7,175.3c-0.2-0.4-0.6-0.9-0.8-1.3c-0.1-0.2-0.2-0.5-0.3-0.7c0-0.1-0.1-0.1-0.1-0.2"/>
		<line class="st1" x1="145.1" y1="155.8" x2="145.1" y2="155.7"/>
		<polyline class="st1" points="157.8,155.7 157.8,155.8 157.8,155.8 		"/>
		<path class="st1" d="M157.8,158.7v-0.2v-2.6c0,0,0,0,0,0c0.9,0.2,1.7,0.3,2.6,0.5c1,0.2,1.9,0.5,2.9,0.8c0.2,0,0.3,0.1,0.5,0.2
			c2.4,0.8,4.6,1.8,6.8,3.1c0.1,0.1,0.3,0.2,0.4,0.3c2.1,1.3,4.1,2.7,5.9,4.4c0.4,0.4,0.9,0.8,1.3,1.3c1.5,1.5,2.9,3.1,4.1,4.9
			c0,0,0,0,0,0c0,0.2,0.2,0.5,0.4,0.8c0,0,0,0,0.1,0.1c0,0.1,0.1,0.1,0.2,0.2c0,0,0.1,0.1,0.1,0.1c0,0,0.1,0.1,0.1,0.1h0
			c0,0,0,0,0,0c0,0,0,0,0,0v0c0,0.2,0.2,0.3,0.3,0.5c0,0,0,0,0,0.1c0,0.1,0,0.1,0,0.2c0.1,0.2,0.2,0.5,0.3,0.7
			c0.3,0.4,0.6,0.9,0.9,1.3c0,0.1,0.1,0.2,0.1,0.3c0.1,0.2,0.1,0.4,0.1,0.5c0,0,0,0,0,0c0,0.1,0,0.2,0.1,0.4c0,0,0,0.1,0.1,0.1
			c0,0,0,0.1,0.1,0.1c0.1,0.2,0.2,0.3,0.3,0.5c0,0.1,0.1,0.2,0.1,0.2c0,0.1,0.1,0.1,0.1,0.2c0.1,0.3,0.3,0.5,0.4,0.8
			c0.3,0.8,0.6,1.5,0.9,2.3c0.1,0.3,0.2,0.5,0.3,0.8c0.2,0.6,0.4,1.1,0.5,1.7c0.9,3.2,1.3,6.6,1.3,10c0,3.5-0.5,6.8-1.3,10
			c-4.1,14.9-17,26.1-32.7,27.7c-1.3,0.1-2.6,0.2-3.9,0.2c-17.4,0-32.1-11.8-36.6-27.8c-0.9-3.2-1.4-6.6-1.4-10.2
			c0-3.5,0.5-6.9,1.4-10.2c1.7-6.2,4.9-11.7,9.3-16.2c1.4-1.4,2.9-2.8,4.5-4c4.8-3.6,10.5-6.1,16.7-7.1v2.7v0.2"/>
		<path class="st1" d="M155.1,228.1c0.9-0.1,1.8-0.3,2.7-0.3"/>
		<path class="st1" d="M145,227.7c0.9,0.2,1.9,0.3,2.8,0.4"/>
		<path class="st1" d="M145.1,227.3l-0.1,0.4c-16.4-2.9-28.8-17.3-28.8-34.5c0-8.9,3.3-17,8.7-23.2"/>
		<path class="st1" d="M145.1,165.3v-2.7v-3.9c-6.7,1.2-12.7,4.3-17.5,8.6c-1,0.9-1.9,1.8-2.7,2.8c0,0,0,0,0,0l0.2,0.2v24h10v12.7
			h-2.7v10.4l12.7,10v-20.4"/>
		<path class="st1" d="M155.1,162.5v65.6c-1.3,0.1-2.5,0.2-3.9,0.2c-1.2,0-2.3-0.1-3.4-0.2v-65.5h6.8"/>
		<path class="st1" d="M177.7,170.3c2,2.3,3.7,4.8,5,7.6c2.3,4.7,3.5,9.9,3.5,15.4c0,17.1-12.2,30.9-28.4,34.5h0l0-0.5"/>
		<path class="st1" d="M157.8,206.9v20.4l12.7-10v-10.4h-2.7v-12.7h10v-24c-1-1.1-2-2.1-3-3.1c-4.7-4.2-10.5-7.2-16.9-8.5v3.8v2.7"
			/>
		<polyline class="st1" points="187.2,234.1 187.6,234.1 188.2,234.1 		"/>
		<polyline class="st1" points="134.7,244.1 136.1,244.1 136.5,244.1 		"/>
		<line class="st1" x1="129.7" y1="235.9" x2="149.6" y2="235.9"/>
		<polyline class="st1" points="149.6,244.1 140.5,244.1 140.3,243.9 		"/>
		<line class="st1" x1="153.3" y1="235.9" x2="173.2" y2="235.9"/>
		<polyline class="st1" points="162.7,243.9 162.4,244.1 153.3,244.1 		"/>
		<rect x="149.6" y="235.9" class="st1" width="3.6" height="8.2"/>
		<polygon class="st1" points="165.2,244.1 162.8,244.1 162.7,243.9 173.2,235.9 181.7,235.9 		"/>
		<polygon class="st1" points="140.3,243.9 140.1,244.1 137.8,244.1 121.2,235.9 129.7,235.9 		"/>
		<line class="st1" x1="166.4" y1="244.1" x2="167.3" y2="244.1"/>
		<polyline class="st1" points="144.7,162.5 145.1,162.5 147.4,162.5 		"/>
		<polyline class="st1" points="154.6,162.5 155.1,162.5 157.3,162.5 		"/>
		<polygon class="st1" points="173.4,169.3 173.8,169.6 173.7,190.6 166.9,190.6 166.9,165.6 		"/>
		<polygon class="st1" points="136,165.6 136,190.6 129.3,190.6 129.1,169.6 		"/>
		<polygon class="st1" points="164.1,165.6 164.1,206.9 157.8,206.9 157.8,165.3 164.1,165.3 		"/>
		<line class="st1" x1="145.1" y1="165.3" x2="145.1" y2="206.9"/>
		<polyline class="st1" points="144.7,206.9 138.8,206.9 138.8,165.3 144.7,165.3 		"/>
		<polyline class="st1" points="144.7,206.9 145.1,206.9 145.6,206.9 		"/>
		<polyline class="st1" points="144.7,165.3 145.1,165.3 145.6,165.3 		"/>
		<path class="st1" d="M204.3,172.3l0.4-0.2l29.2,5.4v30.8l-29.2,5.4l-0.2-0.1c2.9-6.2,4.6-13,4.6-20.2
			C209.1,185.9,207.4,178.8,204.3,172.3z"/>
		<line class="st1" x1="98.2" y1="213.7" x2="97.7" y2="213.6"/>
		<path class="st1" d="M97.7,213.6L69,208.3v-3.2v-24.5v-3.2l29.2-5.4c-3.2,6.5-4.9,13.7-4.9,21.2C93.2,200.5,94.8,207.3,97.7,213.6
			z"/>
		<polyline class="st1" points="68.5,180.7 69,180.7 69.4,180.7 		"/>
		<polyline class="st1" points="68.5,205.1 69,205.1 69.4,205.1 		"/>
		<path class="st1" d="M199.9,221.9c0-0.2,0-0.3,0-0.5"/>
		<path class="st1" d="M200,164.9c0-0.1,0-0.3,0-0.4"/>
		<path class="st1" d="M114.7,203.4C114.7,203.3,114.8,203.3,114.7,203.4"/>
		<path class="st1" d="M114.8,183.1C114.8,183.1,114.7,183.1,114.8,183.1"/>
		<path class="st1" d="M176.7,146.1c-3.1-1.4-6.4-2.5-9.8-3.4"/>
		<path class="st1" d="M136,142.6c-3.4,0.8-6.8,2-9.9,3.3l-0.1-0.2V94.6h50.7"/>
		<path class="st1" d="M178.5,147c-0.6-0.3-1.2-0.6-1.8-0.9l0.2-0.3V94.6h1.8"/>
		<path class="st1" d="M194.7,158.7c-4.6-4.7-10.1-8.7-16.2-11.7l0.1-0.3V94.6h0.2l2.9-1.8h6.3l1.4,2.3v15.9l5.4,3.2v44.4
			L194.7,158.7z"/>
		<path class="st1" d="M124.3,94.6v52.1l0,0.1c-6.2,2.9-11.7,6.9-16.4,11.6v-44.3l5.4-3.2V95l1.4-2.3h6.3l2.9,1.8"/>
		<polyline class="st1" points="123.8,94.6 124,94.6 124.3,94.6 125.6,94.6 		"/>
		<path class="st1" d="M160.5,141.5c-2.9-0.4-6.2-0.7-9.3-0.7H151c-2.9,0-5.8,0.2-8.6,0.6"/>
		<path class="st1" d="M160.5,141.5l0-0.2v-21.3h-18.1v21.3l0,0.2c-2.2,0.3-4.3,0.7-6.4,1.2v-33.5h30.8v33.7c0,0,0,0,0,0
			C164.8,142.2,162.6,141.8,160.5,141.5z"/>
	</g>
</g>
<g id="XMLID_2_">
	<g>
		<path class="st2" d="M293.6,279.5l-56.2-38V39.7L293.6,1v176.8v10.4h-47.2v8.6h47.2V207V279.5z M243,233.1l43.7,30.7V206l-43.7-3
			V233.1z M243,183.1l43.7-3V17.7L243,49V183.1z"/>
		<polygon class="st0" points="286.6,263.8 243,233.1 243,203 286.6,206 		"/>
		<path class="st4" d="M293.6,207v-10.4v-8.6v-10.4c0,0,5.5,0.4,5.5,3.4c3.2,0,3.2,0,3.2,0v11.3v11.3c0,0,0,0-3.2,0
			C299.1,206.7,293.6,207,293.6,207z"/>
		<rect x="246.4" y="188.1" class="st3" width="47.2" height="8.6"/>
		<polygon class="st0" points="286.6,180.1 243,183.1 243,49 286.6,17.7 		"/>
	</g>
	<g>
		<polyline class="st1" points="293.6,188.1 293.6,177.7 293.6,1 237.4,39.7 237.4,241.5 293.6,279.5 293.6,207 293.6,196.7 		"/>
		<polygon class="st1" points="243,233.1 243,203 286.6,206 286.6,263.8 		"/>
		<polygon class="st1" points="286.6,180.1 243,183.1 243,49 286.6,17.7 		"/>
		<path class="st1" d="M293.6,177.7c0,0,5.5,0.4,5.5,3.4c3.2,0,3.2,0,3.2,0v11.3"/>
		<path class="st1" d="M293.6,207c0,0,5.5-0.4,5.5-3.4c3.2,0,3.2,0,3.2,0v-11.3"/>
		<rect x="246.4" y="188.1" class="st1" width="47.2" height="8.6"/>
	</g>
</g>
<g id="XMLID_4_">
	<g>
		<path class="st2" d="M65.5,241.5l-56.2,38V207v-10.4h47.2v-8.6H9.2v-10.4V1l56.2,38.8V241.5z M16.2,263.8l43.7-30.7V203l-43.7,3
			V263.8z M16.2,180.1l43.7,3V49L16.2,17.7V180.1z"/>
		<polygon class="st0" points="59.9,233.1 16.2,263.8 16.2,206 59.9,203 		"/>
		<path class="st4" d="M9.2,196.7V207c0,0-5.5-0.4-5.5-3.4c-3.2,0-3.2,0-3.2,0v-11.3v-11.3c0,0,0,0,3.2,0c0-3,5.5-3.4,5.5-3.4v10.4
			V196.7z"/>
		<rect x="9.2" y="188.1" class="st3" width="47.2" height="8.6"/>
		<polygon class="st0" points="59.9,183.1 16.2,180.1 16.2,17.7 59.9,49 		"/>
	</g>
	<g>
		<polygon class="st1" points="9.2,207 9.2,279.5 65.5,241.5 65.5,39.7 9.2,1 9.2,177.7 9.2,188.1 9.2,196.7 		"/>
		<polygon class="st1" points="16.2,206 59.9,203 59.9,233.1 16.2,263.8 		"/>
		<polygon class="st1" points="59.9,183.1 16.2,180.1 16.2,17.7 59.9,49 		"/>
		<path class="st1" d="M9.2,177.7c0,0-5.5,0.4-5.5,3.4c-3.2,0-3.2,0-3.2,0v11.3"/>
		<path class="st1" d="M9.2,207c0,0-5.5-0.4-5.5-3.4c-3.2,0-3.2,0-3.2,0v-11.3"/>
		<polyline class="st1" points="9.2,188.1 56.5,188.1 56.5,196.7 9.2,196.7 		"/>
	</g>
</g>
</svg>
