<?xml version="1.0" encoding="utf-8"?>
<!-- Generator: Adobe Illustrator 19.1.0, SVG Export Plug-In . SVG Version: 6.00 Build 0)  -->
<svg version="1.1" id="Calque_1" xmlns="http://www.w3.org/2000/svg" xmlns:xlink="http://www.w3.org/1999/xlink" x="0px" y="0px"
	 viewBox="0 0 297.1 335.5" style="enable-background:new 0 0 297.1 335.5;" xml:space="preserve">
<style type="text/css">
	.st0{fill:#CECECE;}
	.st1{fill:#6D6D6D;}
	.st2{fill:#D65454;}
	.st3{fill:#1E1E1E;}
	.st4{fill:#2868C6;}
	.st5{fill:#939393;}
	.st6{fill:#444444;}
	.st7{fill:none;stroke:#000000;stroke-miterlimit:10;}
</style>
<g id="XMLID_1_">
	<g>
		<polygon class="st0" points="282.9,229.3 295.9,229.3 296.6,229.3 296.6,232.6 295.9,232.6 282.9,232.6 282.3,232.6 282.3,229.3 
					"/>
		<path class="st0" d="M109.9,280.3h-0.3c0.1-0.2,0.2-0.4,0.2-0.7c0-0.7-0.6-1.2-1.2-1.2h10.3v17.5h-7.1v-13.7
			C111.8,281.1,110.9,280.3,109.9,280.3z"/>
		<polygon class="st1" points="193.5,278.4 190,278.4 188.5,278.4 178.2,278.4 178.2,271.2 190,271.2 193.5,271.2 205.3,271.2 
			205.3,278.4 195,278.4 		"/>
		<polygon class="st1" points="103.6,278.4 102.1,278.4 91.8,278.4 91.8,271.2 103.6,271.2 107.1,271.2 118.9,271.2 118.9,278.4 
			108.6,278.4 107.1,278.4 		"/>
		<path class="st1" d="M148.6,0.5c0,0,0,0,3.9,0c6.4,9.4,8.7,47.3,8.7,47.3h-1.4c0,0-3.4-7.2-6.2-7.8h-1.7h-6.4h-1.7
			c-2.9,0.6-6.2,7.8-6.2,7.8H136c0,0,2.3-37.9,8.7-47.3C148.6,0.5,148.6,0.5,148.6,0.5z"/>
		<path class="st0" d="M151.8,40h1.7c2.9,0.6,6.2,7.8,6.2,7.8l9.9,140.8l-2.5,0.2l-9.3-49.4h-18.6l-9.3,49.4l-2.5-0.2l9.9-140.8
			c0,0,3.4-7.2,6.2-7.8h1.7v83.6l1.5,2.7h3.4l1.5-2.7V40z"/>
		<polygon class="st2" points="145.3,40 151.8,40 151.8,123.6 150.3,126.2 146.8,126.2 145.3,123.6 		"/>
		<rect x="7.1" y="111.4" class="st0" width="1.8" height="18.9"/>
		<polygon class="st0" points="290,130.3 291.4,130.3 291.4,136.8 286.2,136.8 286.2,130.3 288.2,130.3 		"/>
		<polygon class="st0" points="8.9,130.3 10.9,130.3 10.9,136.8 5.7,136.8 5.7,130.3 7.1,130.3 		"/>
		<path class="st0" d="M291.4,136.8h2.4c0,3.2-1.8,4.3-1.8,4.3c0,0.5-0.4,0.8-0.8,0.8H291v-0.2h-3.8v0.2H287c-0.4,0-0.8-0.4-0.8-0.8
			h0c0,0-1.8-1.2-1.8-4.3h1.8H291.4z"/>
		<path class="st0" d="M10.9,136.8h1.8c0,3.2-1.8,4.3-1.8,4.3h0c0,0.5-0.4,0.8-0.8,0.8H9.9v-0.2H6.1v0.2H5.9c-0.5,0-0.8-0.4-0.8-0.8
			c0,0-1.8-1.2-1.8-4.3h2.4H10.9z"/>
		<path class="st0" d="M139.3,139.4h18.6l9.3,49.4l-2,3.4c0,0-3.4-2.6-5.2-2.6h-0.4h-1.4l-2.2-41.7l-1.8-2.6h-11l-1.8,2.6l-2.2,41.7
			h-1.4h-0.4c-1.8,0-5.2,2.6-5.2,2.6l-2-3.4L139.3,139.4z M137.1,185.5L139,159l-6.4,29.9L137.1,185.5z M164.5,188.8l-6.4-29.9
			l1.8,26.5L164.5,188.8z"/>
		<polygon class="st0" points="287.2,142 291,142 291,180.8 291.4,182.9 286.8,182.9 287.2,180.8 		"/>
		<polygon class="st0" points="6.1,142 9.9,142 9.9,180.8 10.3,182.9 5.7,182.9 6.1,180.8 		"/>
		<path class="st3" d="M143.1,145.4h11l1.8,2.6l2.2,41.7c-3.4,0-9.6,0-9.6,0s-6.2,0-9.6,0l2.2-41.7L143.1,145.4z"/>
		<polygon class="st3" points="139,159 137.1,185.5 132.6,188.8 		"/>
		<polygon class="st3" points="158.1,159 164.5,188.8 159.9,185.5 		"/>
		<polygon class="st0" points="291.4,182.9 292,182.9 292,226.6 286.2,226.6 286.2,182.9 286.8,182.9 		"/>
		<polygon class="st0" points="10.3,182.9 10.9,182.9 10.9,226.6 5.1,226.6 5.1,182.9 5.7,182.9 		"/>
		<polygon class="st0" points="167.1,188.8 169.6,188.6 171.3,212.5 169.6,213.6 167.1,213.6 		"/>
		<polygon class="st0" points="127.5,188.6 130,188.8 130,213.6 127.5,213.6 125.8,212.5 		"/>
		<path class="st0" d="M130,188.8l2,3.4l3.9,6.8l2.4,4.2h20.7l2.4-4.2l3.9-6.8l2-3.4v24.8v100H130v-100V188.8z M148.8,209.8
			c-3.7,0-6.7,3-6.7,6.7c0,2.5,1.4,4.7,3.4,5.8H139v87.2h19.7v-87.2h-6.6c2-1.1,3.4-3.3,3.4-5.8
			C155.5,212.8,152.5,209.8,148.8,209.8z"/>
		<path class="st3" d="M159.5,189.6h0.4c1.8,0,5.2,2.6,5.2,2.6l-3.9,6.8l-1.7-1V189.6z"/>
		<path class="st0" d="M158.1,189.6h1.4v8.4h-21.9v-8.4h1.4c3.4,0,9.6,0,9.6,0S154.8,189.6,158.1,189.6z"/>
		<path class="st3" d="M137.1,189.6h0.4v8.4l-1.7,1l-3.9-6.8C132,192.3,135.4,189.6,137.1,189.6z"/>
		<polygon class="st3" points="137.6,198.1 159.5,198.1 161.3,199 158.9,203.2 138.2,203.2 135.8,199 		"/>
		<path class="st4" d="M142.1,216.5c0-3.7,3-6.7,6.7-6.7c3.7,0,6.7,3,6.7,6.7c0,2.5-1.4,4.7-3.4,5.8c-1,0.5-2.1,0.9-3.3,0.9
			s-2.3-0.3-3.3-0.9C143.5,221.2,142.1,219,142.1,216.5z"/>
		<polygon class="st0" points="125.8,212.5 127.5,213.6 127.5,235.3 124.9,237.9 124.9,310.9 121.3,304 121.3,238.3 121.2,238.2 
			125.4,218 		"/>
		<polygon class="st0" points="169.6,213.6 171.3,212.5 171.7,218 175.9,238.2 175.8,238.3 175.8,304 172.2,310.9 172.2,237.9 
			169.6,235.3 		"/>
		<polygon class="st5" points="167.1,213.6 169.6,213.6 169.6,235.3 172.2,237.9 172.2,310.9 167.1,313.6 		"/>
		<polygon class="st5" points="127.5,213.6 130,213.6 130,313.6 124.9,310.9 124.9,237.9 127.5,235.3 		"/>
		<path class="st6" d="M152.1,222.3h6.6v87.2H139v-87.2h6.6c1,0.5,2.1,0.9,3.3,0.9S151.1,222.9,152.1,222.3z"/>
		<rect x="181.6" y="225.7" class="st3" width="18.7" height="1.8"/>
		<rect x="96.8" y="225.7" class="st3" width="18.7" height="1.8"/>
		<polygon class="st1" points="292,226.6 295.9,226.6 295.9,229.3 282.9,229.3 282.9,226.6 286.2,226.6 		"/>
		<polygon class="st1" points="10.9,226.6 14.2,226.6 14.2,229.3 1.2,229.3 1.2,226.6 5.1,226.6 		"/>
		<polygon class="st6" points="200.3,227.6 202.3,227.6 202.3,230.9 179.6,230.9 179.6,227.6 181.6,227.6 		"/>
		<polygon class="st6" points="115.5,227.6 117.5,227.6 117.5,230.9 94.8,230.9 94.8,227.6 96.8,227.6 		"/>
		<polygon class="st0" points="14.2,229.3 14.8,229.3 14.8,232.6 14.2,232.6 1.2,232.6 0.5,232.6 0.5,229.3 1.2,229.3 		"/>
		<polygon class="st0" points="202.3,230.9 203.3,230.9 203.3,238.3 197.2,238.3 186.2,238.3 178.2,238.3 178.2,230.9 179.6,230.9 
					"/>
		<polygon class="st0" points="117.5,230.9 118.9,230.9 118.9,238.3 110.8,238.3 99.8,238.3 93.8,238.3 93.8,230.9 94.8,230.9 		"/>
		<polygon class="st1" points="282.9,232.6 295.9,232.6 295.9,238.3 294.2,238.3 294.2,236.2 284.6,236.2 284.6,238.3 282.9,238.3 
					"/>
		<polygon class="st1" points="1.2,232.6 14.2,232.6 14.2,238.3 12.5,238.3 12.5,236.2 2.8,236.2 2.8,238.3 1.2,238.3 		"/>
		<polygon class="st0" points="284.6,236.2 294.2,236.2 294.2,238.3 294.2,271.2 294.2,279.4 292.4,281.3 286.7,281.3 284.8,279.4 
			284.6,279.4 284.6,271.2 284.6,245.5 284.6,238.3 		"/>
		<polygon class="st0" points="2.8,236.2 12.5,236.2 12.5,238.3 12.5,245.5 12.5,271.2 12.5,279.4 12.3,279.4 10.4,281.3 4.7,281.3 
			2.8,279.4 2.8,271.2 2.8,238.3 		"/>
		<polygon class="st0" points="121.2,238.2 121.3,238.3 121.3,304 118.9,304 118.9,295.9 118.9,278.4 118.9,271.2 118.9,244 
			118.9,238.3 121.2,238.3 		"/>
		<polygon class="st0" points="175.8,238.3 175.9,238.2 175.9,238.3 178.2,238.3 178.2,244 178.2,271.2 178.2,278.4 178.2,295.9 
			178.2,304 175.8,304 		"/>
		<polygon class="st6" points="294.2,238.3 295.9,238.3 295.9,256 296.6,257.2 296.6,271.2 294.2,271.2 		"/>
		<polygon class="st0" points="282.9,238.3 284.6,238.3 284.6,245.5 279.8,248.2 279.8,268.4 284.6,271.2 284.6,279.4 284.6,279.6 
			275.2,282.1 275.2,267.7 275.2,238.3 		"/>
		<polygon class="st2" points="256.3,238.3 275.2,238.3 275.2,267.7 244.4,273.2 244.4,268.4 256.3,266 		"/>
		<path class="st0" d="M205.3,238.3h51V266l-11.8,2.4v4.8l30.8-5.5v14.4L202.3,302l-2.6-6.2h-1.5v-13.7c0-1-0.8-1.9-1.9-1.9H196
			c0.1-0.2,0.2-0.4,0.2-0.7c0-0.7-0.6-1.2-1.2-1.2h10.3v-7.2v-2.7v-8.9V244V238.3z M251.6,244h-7.1v6.1v2.6v6.1h7.1v-6.1V250V244z
			 M211.1,248h-4v28.3h17.1v-13.5h-1.4L211.1,248z"/>
		<polygon class="st1" points="203.3,238.3 205.3,238.3 205.3,244 197.2,244 197.2,238.3 		"/>
		<polygon class="st0" points="186.2,238.3 197.2,238.3 197.2,244 205.3,244 205.3,259.5 205.3,268.4 205.3,271.2 193.5,271.2 
			190,271.2 178.2,271.2 178.2,244 186.2,244 		"/>
		<rect x="178.2" y="238.3" class="st1" width="8" height="5.7"/>
		<rect x="110.8" y="238.3" class="st1" width="8" height="5.7"/>
		<polygon class="st0" points="99.8,238.3 110.8,238.3 110.8,244 118.9,244 118.9,271.2 107.1,271.2 103.6,271.2 91.8,271.2 
			91.8,244 99.8,244 		"/>
		<polygon class="st1" points="93.8,238.3 99.8,238.3 99.8,244 91.8,244 91.8,238.3 		"/>
		<path class="st0" d="M40.8,238.3h51v5.7v27.2v7.2h10.3c-0.7,0-1.2,0.5-1.2,1.2c0,0.2,0.1,0.5,0.2,0.7h-0.3c-0.5,0-1,0.2-1.3,0.6
			c-0.4,0.3-0.6,0.8-0.6,1.3v13.7h-1.5l-2.6,6.2l-72.9-19.9v-14.4l30.8,5.5v-4.8L40.8,266V238.3z M52.7,244h-7.1v6.1v2.6v6.1h7.1
			v-6.1V250V244z M90,248h-4l-11.7,14.8h-1.4v13.5H90V248z"/>
		<polygon class="st2" points="21.9,238.3 40.8,238.3 40.8,266 52.7,268.4 52.7,273.2 21.9,267.7 		"/>
		<polygon class="st0" points="14.2,238.3 21.9,238.3 21.9,267.7 21.9,282.1 12.5,279.6 12.5,279.4 12.5,271.2 17.3,268.4 
			17.3,258.3 17.3,248.2 12.5,245.5 12.5,238.3 		"/>
		<polygon class="st6" points="1.2,238.3 2.8,238.3 2.8,271.2 0.5,271.2 0.5,257.2 1.2,256 		"/>
		<rect x="244.4" y="244" class="st0" width="7.1" height="6.1"/>
		<rect x="45.5" y="244" class="st0" width="7.1" height="6.1"/>
		<polygon class="st0" points="12.5,245.5 17.3,248.2 17.3,258.3 17.3,268.4 12.5,271.2 		"/>
		<polygon class="st0" points="279.8,248.2 284.6,245.5 284.6,271.2 279.8,268.4 		"/>
		<polygon class="st5" points="207.1,248 211.1,248 222.8,262.8 224.2,262.8 224.2,276.3 207.1,276.3 		"/>
		<polygon class="st5" points="86,248 90,248 90,276.3 72.9,276.3 72.9,262.8 74.3,262.8 		"/>
		<rect x="244.4" y="250" class="st0" width="7.1" height="2.6"/>
		<rect x="45.5" y="250" class="st0" width="7.1" height="2.6"/>
		<rect x="244.4" y="252.6" class="st0" width="7.1" height="6.1"/>
		<rect x="45.5" y="252.6" class="st0" width="7.1" height="6.1"/>
		<path class="st3" d="M193.5,278.4h1.4c0.7,0,1.2,0.5,1.2,1.2c0,0.2-0.1,0.5-0.2,0.7h-8.4c-0.1-0.2-0.2-0.4-0.2-0.7
			c0-0.7,0.5-1.2,1.2-1.2h1.4H193.5z"/>
		<path class="st0" d="M178.2,278.4h10.3c-0.7,0-1.2,0.5-1.2,1.2c0,0.2,0.1,0.5,0.2,0.7h-0.3c-1,0-1.9,0.8-1.9,1.9v13.7h-7.1V278.4z
			"/>
		<path class="st3" d="M107.1,278.4h1.4c0.7,0,1.2,0.5,1.2,1.2c0,0.2-0.1,0.5-0.2,0.7h-8.4c-0.1-0.2-0.2-0.4-0.2-0.7
			c0-0.7,0.6-1.2,1.2-1.2h1.4H107.1z"/>
		<path class="st1" d="M187.6,280.3h8.4h0.3c1.1,0,1.9,0.8,1.9,1.9v13.7v21.7h-12.8v-21.7v-13.7c0-1,0.9-1.9,1.9-1.9H187.6z"/>
		<path class="st1" d="M109.6,280.3h0.3c1,0,1.9,0.8,1.9,1.9v13.7v21.7H98.9v-21.7v-13.7c0-0.5,0.2-1,0.6-1.3
			c0.3-0.4,0.8-0.6,1.3-0.6h0.3H109.6z"/>
		<rect x="286.7" y="281.3" class="st5" width="5.7" height="7.2"/>
		<rect x="4.7" y="281.3" class="st5" width="5.7" height="7.2"/>
		<polygon class="st0" points="286.7,288.5 292.4,288.5 294,288.5 294,292.8 285,292.8 285,288.5 		"/>
		<polygon class="st0" points="4.7,288.5 10.4,288.5 12.1,288.5 12.1,292.8 3.1,292.8 3.1,288.5 		"/>
		<polygon class="st6" points="198.2,317.5 199.9,317.5 199.9,320.3 183.6,320.3 183.6,317.5 185.3,317.5 		"/>
		<polygon class="st6" points="98.9,317.5 111.8,317.5 113.4,317.5 113.4,320.3 97.2,320.3 97.2,317.5 		"/>
		<polygon class="st5" points="199.9,320.3 201.3,320.3 201.3,325.1 198.8,325.1 196.9,325.1 194.3,325.1 191.8,325.1 189.2,325.1 
			186.6,325.1 184.7,325.1 182.2,325.1 182.2,320.3 183.6,320.3 		"/>
		<polygon class="st5" points="113.4,320.3 114.9,320.3 114.9,325.1 112.4,325.1 110.5,325.1 107.9,325.1 105.3,325.1 102.8,325.1 
			100.2,325.1 98.3,325.1 95.8,325.1 95.8,320.3 97.2,320.3 		"/>
		<rect x="196.9" y="325.1" class="st1" width="1.9" height="9.9"/>
		<rect x="194.3" y="325.1" class="st1" width="2.6" height="9.9"/>
		<rect x="191.8" y="325.1" class="st1" width="2.5" height="9.9"/>
		<rect x="189.2" y="325.1" class="st1" width="2.5" height="9.9"/>
		<rect x="186.6" y="325.1" class="st1" width="2.6" height="9.9"/>
		<rect x="184.7" y="325.1" class="st1" width="1.9" height="9.9"/>
		<rect x="110.5" y="325.1" class="st1" width="1.9" height="9.9"/>
		<rect x="107.9" y="325.1" class="st1" width="2.6" height="9.9"/>
		<rect x="105.3" y="325.1" class="st1" width="2.5" height="9.9"/>
		<rect x="102.8" y="325.1" class="st1" width="2.5" height="9.9"/>
		<rect x="100.2" y="325.1" class="st1" width="2.6" height="9.9"/>
		<rect x="98.3" y="325.1" class="st1" width="1.9" height="9.9"/>
	</g>
	<g>
		<polyline class="st7" points="125.8,212.5 127.5,188.6 137.4,47.8 		"/>
		<polyline class="st7" points="159.7,47.8 169.6,188.6 171.3,212.5 		"/>
		<line class="st7" x1="130" y1="313.6" x2="124.9" y2="310.9"/>
		<line class="st7" x1="127.5" y1="213.6" x2="130" y2="213.6"/>
		<polyline class="st7" points="121.2,238.2 125.4,218 125.8,212.5 127.5,213.6 127.5,235.3 124.9,237.9 124.9,310.9 121.3,304 		
			"/>
		<polyline class="st7" points="118.9,238.3 121.2,238.3 121.2,238.2 121.3,238.3 121.3,304 118.9,304 118.9,295.9 118.9,278.4 		
			"/>
		<line class="st7" x1="118.9" y1="271.2" x2="118.9" y2="244"/>
		<polyline class="st7" points="169.6,213.6 171.3,212.5 171.7,218 175.9,238.2 		"/>
		<line class="st7" x1="175.8" y1="304" x2="172.2" y2="310.9"/>
		<polyline class="st7" points="178.2,278.4 178.2,295.9 178.2,304 175.8,304 175.8,238.3 175.9,238.2 175.9,238.3 178.2,238.3 		
			"/>
		<line class="st7" x1="178.2" y1="244" x2="178.2" y2="271.2"/>
		<path class="st7" d="M145.3,40h-1.7c-2.9,0.6-6.2,7.8-6.2,7.8H136c0,0,2.3-37.9,8.7-47.3c3.9,0,3.9,0,3.9,0s0,0,3.9,0
			c6.4,9.4,8.7,47.3,8.7,47.3h-1.4c0,0-3.4-7.2-6.2-7.8h-1.7"/>
		<polyline class="st7" points="137.6,189.6 137.6,198.1 159.5,198.1 159.5,189.6 		"/>
		<polyline class="st7" points="167.1,213.6 169.6,213.6 169.6,235.3 172.2,237.9 172.2,310.9 167.1,313.6 		"/>
		<polyline class="st7" points="167.1,188.8 157.8,139.4 139.3,139.4 130,188.8 		"/>
		<path class="st7" d="M158.1,189.6h1.4h0.4c1.8,0,5.2,2.6,5.2,2.6"/>
		<path class="st7" d="M132,192.3c0,0,3.4-2.6,5.2-2.6h0.4h1.4"/>
		<line class="st7" x1="110.8" y1="238.3" x2="99.8" y2="238.3"/>
		<polyline class="st7" points="93.8,238.3 93.8,230.9 94.8,230.9 117.5,230.9 118.9,230.9 118.9,238.3 		"/>
		<polyline class="st7" points="94.8,230.9 94.8,227.6 96.8,227.6 115.5,227.6 117.5,227.6 117.5,230.9 		"/>
		<polyline class="st7" points="96.8,227.6 96.8,225.7 115.5,225.7 115.5,227.6 		"/>
		<line class="st7" x1="98.9" y1="317.5" x2="98.9" y2="295.9"/>
		<path class="st7" d="M109.6,280.3h0.3c1,0,1.9,0.8,1.9,1.9v13.7v21.7"/>
		<polyline class="st7" points="105.3,335 102.8,335 100.2,335 98.3,335 98.3,325.1 		"/>
		<line class="st7" x1="107.1" y1="271.2" x2="103.6" y2="271.2"/>
		<polyline class="st7" points="91.8,238.3 93.8,238.3 99.8,238.3 99.8,244 91.8,244 		"/>
		<rect x="110.8" y="238.3" class="st7" width="8" height="5.7"/>
		<line class="st7" x1="100.2" y1="325.1" x2="100.2" y2="335"/>
		<line class="st7" x1="102.8" y1="325.1" x2="102.8" y2="335"/>
		<line class="st7" x1="110.5" y1="325.1" x2="110.5" y2="335"/>
		<line class="st7" x1="107.9" y1="325.1" x2="107.9" y2="335"/>
		<polyline class="st7" points="113.4,320.3 114.9,320.3 114.9,325.1 112.4,325.1 110.5,325.1 107.9,325.1 105.3,325.1 102.8,325.1 
			100.2,325.1 98.3,325.1 95.8,325.1 95.8,320.3 97.2,320.3 		"/>
		<polygon class="st7" points="97.2,320.3 97.2,317.5 98.9,317.5 111.8,317.5 113.4,317.5 113.4,320.3 		"/>
		<polyline class="st7" points="112.4,325.1 112.4,335 110.5,335 107.9,335 105.3,335 105.3,325.1 		"/>
		<path class="st7" d="M108.6,278.4c0.7,0,1.2,0.5,1.2,1.2c0,0.2-0.1,0.5-0.2,0.7h-8.4"/>
		<line class="st7" x1="103.6" y1="278.4" x2="107.1" y2="278.4"/>
		<polyline class="st7" points="107.1,271.2 118.9,271.2 118.9,278.4 108.6,278.4 107.1,278.4 		"/>
		<line class="st7" x1="118.9" y1="295.9" x2="111.8" y2="295.9"/>
		<line class="st7" x1="91.8" y1="271.2" x2="103.6" y2="271.2"/>
		<line class="st7" x1="103.6" y1="278.4" x2="102.1" y2="278.4"/>
		<path class="st7" d="M21.9,282.1L94.8,302l2.6-6.2h1.5v-13.7c0-0.5,0.2-1,0.6-1.3c0.3-0.4,0.8-0.6,1.3-0.6h0.3
			c-0.1-0.2-0.2-0.4-0.2-0.7c0-0.7,0.6-1.2,1.2-1.2H91.8v-7.2V244v-5.7h-51"/>
		<polyline class="st7" points="21.9,238.3 40.8,238.3 40.8,266 52.7,268.4 52.7,273.2 21.9,267.7 		"/>
		<polyline class="st7" points="14.2,238.3 21.9,238.3 21.9,267.7 21.9,282.1 12.5,279.6 12.5,279.4 		"/>
		<polyline class="st7" points="12.5,245.5 17.3,248.2 17.3,258.3 17.3,268.4 12.5,271.2 		"/>
		<rect x="45.5" y="252.6" class="st7" width="7.1" height="6.1"/>
		<rect x="45.5" y="244" class="st7" width="7.1" height="6.1"/>
		<polygon class="st7" points="90,248 90,276.3 72.9,276.3 72.9,262.8 74.3,262.8 86,248 		"/>
		<line class="st7" x1="4.7" y1="288.5" x2="4.7" y2="281.3"/>
		<line class="st7" x1="10.4" y1="281.3" x2="10.4" y2="288.5"/>
		<polyline class="st7" points="12.5,238.3 12.5,245.5 12.5,271.2 12.5,279.4 12.3,279.4 10.4,281.3 4.7,281.3 2.8,279.4 2.8,271.2 
					"/>
		<polygon class="st7" points="10.4,288.5 12.1,288.5 12.1,292.8 3.1,292.8 3.1,288.5 4.7,288.5 		"/>
		<polyline class="st7" points="14.2,229.3 14.8,229.3 14.8,232.6 14.2,232.6 		"/>
		<polyline class="st7" points="1.2,232.6 0.5,232.6 0.5,229.3 1.2,229.3 		"/>
		<polyline class="st7" points="1.2,238.3 1.2,232.6 14.2,232.6 14.2,238.3 12.5,238.3 12.5,236.2 2.8,236.2 2.8,238.3 		"/>
		<polygon class="st7" points="1.2,238.3 2.8,238.3 2.8,271.2 0.5,271.2 0.5,257.2 1.2,256 		"/>
		<polyline class="st7" points="10.9,226.6 14.2,226.6 14.2,229.3 1.2,229.3 1.2,226.6 5.1,226.6 		"/>
		<polyline class="st7" points="10.3,182.9 10.9,182.9 10.9,226.6 5.1,226.6 5.1,182.9 5.7,182.9 		"/>
		<polyline class="st7" points="9.9,142 9.9,180.8 10.3,182.9 5.7,182.9 6.1,180.8 6.1,142 		"/>
		<path class="st7" d="M10.9,136.8h1.8c0,3.2-1.8,4.3-1.8,4.3h0c0,0.5-0.4,0.8-0.8,0.8H9.9v-0.2H6.1v0.2H5.9c-0.5,0-0.8-0.4-0.8-0.8
			c0,0-1.8-1.2-1.8-4.3h2.4"/>
		<line class="st7" x1="9.9" y1="142" x2="6.1" y2="142"/>
		<polyline class="st7" points="8.9,130.3 10.9,130.3 10.9,136.8 5.7,136.8 5.7,130.3 7.1,130.3 		"/>
		<rect x="7.1" y="111.4" class="st7" width="1.8" height="18.9"/>
		<line class="st7" x1="197.2" y1="238.3" x2="186.2" y2="238.3"/>
		<polyline class="st7" points="202.3,230.9 203.3,230.9 203.3,238.3 		"/>
		<polyline class="st7" points="178.2,238.3 178.2,230.9 179.6,230.9 		"/>
		<polyline class="st7" points="205.3,244 197.2,244 197.2,238.3 203.3,238.3 205.3,238.3 		"/>
		<polyline class="st7" points="200.3,227.6 202.3,227.6 202.3,230.9 179.6,230.9 179.6,227.6 181.6,227.6 		"/>
		<rect x="181.6" y="225.7" class="st7" width="18.7" height="1.8"/>
		<path class="st7" d="M187.6,280.3c-0.1-0.2-0.2-0.4-0.2-0.7c0-0.7,0.5-1.2,1.2-1.2"/>
		<polyline class="st7" points="191.8,335 194.3,335 196.9,335 198.8,335 198.8,325.1 		"/>
		<polyline class="st7" points="198.2,317.5 199.9,317.5 199.9,320.3 		"/>
		<rect x="178.2" y="238.3" class="st7" width="8" height="5.7"/>
		<line class="st7" x1="196.9" y1="325.1" x2="196.9" y2="335"/>
		<line class="st7" x1="194.3" y1="325.1" x2="194.3" y2="335"/>
		<line class="st7" x1="186.6" y1="325.1" x2="186.6" y2="335"/>
		<line class="st7" x1="189.2" y1="325.1" x2="189.2" y2="335"/>
		<polygon class="st7" points="184.7,325.1 182.2,325.1 182.2,320.3 183.6,320.3 199.9,320.3 201.3,320.3 201.3,325.1 198.8,325.1 
			196.9,325.1 194.3,325.1 191.8,325.1 189.2,325.1 186.6,325.1 		"/>
		<polyline class="st7" points="183.6,320.3 183.6,317.5 185.3,317.5 		"/>
		<polyline class="st7" points="184.7,325.1 184.7,335 186.6,335 189.2,335 191.8,335 191.8,325.1 		"/>
		<path class="st7" d="M198.2,295.9v21.7h-12.8v-21.7v-13.7c0-1,0.9-1.9,1.9-1.9h0.3h8.4"/>
		<line class="st7" x1="193.5" y1="278.4" x2="190" y2="278.4"/>
		<line class="st7" x1="190" y1="271.2" x2="193.5" y2="271.2"/>
		<polyline class="st7" points="190,278.4 188.5,278.4 178.2,278.4 178.2,271.2 190,271.2 		"/>
		<line class="st7" x1="185.3" y1="295.9" x2="178.2" y2="295.9"/>
		<line class="st7" x1="195" y1="278.4" x2="193.5" y2="278.4"/>
		<line class="st7" x1="193.5" y1="271.2" x2="205.3" y2="271.2"/>
		<path class="st7" d="M256.3,238.3h-51v5.7v15.5v8.9v2.7v7.2H195c0.7,0,1.2,0.5,1.2,1.2c0,0.2-0.1,0.5-0.2,0.7h0.3
			c1.1,0,1.9,0.8,1.9,1.9v13.7h1.5l2.6,6.2l72.9-19.9"/>
		<polyline class="st7" points="275.2,267.7 244.4,273.2 244.4,268.4 256.3,266 256.3,238.3 275.2,238.3 		"/>
		<polyline class="st7" points="284.6,279.4 284.6,279.6 275.2,282.1 275.2,267.7 275.2,238.3 282.9,238.3 		"/>
		<rect x="244.4" y="252.6" class="st7" width="7.1" height="6.1"/>
		<rect x="244.4" y="244" class="st7" width="7.1" height="6.1"/>
		<polygon class="st7" points="224.2,262.8 224.2,276.3 207.1,276.3 207.1,248 211.1,248 222.8,262.8 		"/>
		<polyline class="st7" points="284.6,271.2 279.8,268.4 279.8,248.2 284.6,245.5 		"/>
		<line class="st7" x1="286.7" y1="288.5" x2="286.7" y2="281.3"/>
		<line class="st7" x1="292.4" y1="281.3" x2="292.4" y2="288.5"/>
		<polyline class="st7" points="294.2,271.2 294.2,279.4 292.4,281.3 286.7,281.3 284.8,279.4 284.6,279.4 284.6,271.2 284.6,245.5 
			284.6,238.3 		"/>
		<polygon class="st7" points="292.4,288.5 294,288.5 294,292.8 285,292.8 285,288.5 286.7,288.5 		"/>
		<polyline class="st7" points="295.9,229.3 296.6,229.3 296.6,232.6 295.9,232.6 		"/>
		<polyline class="st7" points="282.9,232.6 282.3,232.6 282.3,229.3 282.9,229.3 		"/>
		<polyline class="st7" points="292,226.6 295.9,226.6 295.9,229.3 282.9,229.3 282.9,226.6 286.2,226.6 		"/>
		<polyline class="st7" points="294.2,238.3 294.2,236.2 284.6,236.2 284.6,238.3 282.9,238.3 282.9,232.6 295.9,232.6 295.9,238.3 
					"/>
		<polygon class="st7" points="294.2,238.3 295.9,238.3 295.9,256 296.6,257.2 296.6,271.2 294.2,271.2 		"/>
		<polyline class="st7" points="291.4,182.9 292,182.9 292,226.6 286.2,226.6 286.2,182.9 286.8,182.9 		"/>
		<polyline class="st7" points="291,142 291,180.8 291.4,182.9 286.8,182.9 287.2,180.8 287.2,142 		"/>
		<path class="st7" d="M291.4,136.8h2.4c0,3.2-1.8,4.3-1.8,4.3c0,0.5-0.4,0.8-0.8,0.8H291v-0.2h-3.8v0.2H287c-0.4,0-0.8-0.4-0.8-0.8
			h0c0,0-1.8-1.2-1.8-4.3h1.8"/>
		<line class="st7" x1="291" y1="142" x2="287.2" y2="142"/>
		<polyline class="st7" points="290,130.3 291.4,130.3 291.4,136.8 286.2,136.8 286.2,130.3 288.2,130.3 		"/>
		<rect x="288.2" y="111.4" class="st7" width="1.8" height="18.9"/>
		<polygon class="st7" points="145.3,40 151.8,40 151.8,123.6 150.3,126.2 146.8,126.2 145.3,123.6 		"/>
		<polygon class="st7" points="161.3,199 158.9,203.2 138.2,203.2 135.8,199 132,192.3 130,188.8 130,213.6 130,313.6 167.1,313.6 
			167.1,213.6 167.1,188.8 165.1,192.3 		"/>
		<path class="st7" d="M145.6,222.3c-2.1-1.1-3.4-3.3-3.4-5.8c0-3.7,3-6.7,6.7-6.7c3.7,0,6.7,3,6.7,6.7c0,2.5-1.4,4.7-3.4,5.8h6.6
			v87.2H139v-87.2H145.6z"/>
		<path class="st7" d="M152.1,222.3c-1,0.5-2.1,0.9-3.3,0.9s-2.3-0.3-3.3-0.9"/>
		<path class="st7" d="M139,189.6l2.2-41.7l1.8-2.6h11l1.8,2.6l2.2,41.7c-3.4,0-9.6,0-9.6,0S142.3,189.6,139,189.6z"/>
		<polygon class="st7" points="137.1,185.5 132.6,188.8 139,159 		"/>
		<polygon class="st7" points="158.1,159 164.5,188.8 159.9,185.5 		"/>
	</g>
</g>
</svg>
